<svg width="548" height="422" viewBox="0 0 548 422" fill="none" xmlns="http://www.w3.org/2000/svg">
<g clip-path="url(#clip0_903_32062)">
<path d="M235.245 362.876H39.3516L64.7492 300.442L78.1686 293.086L99.2874 244.263L116.364 234.231L132.597 204.86H148.628L184.248 264.996L202.371 274.359L235.245 362.876Z" fill="#EBEBEB"/>
<path d="M39.3516 362.876H123.848V314.153L145.529 280.044L135.199 244.263L148.628 204.86H132.597L116.364 234.231L99.2874 244.263L78.1686 293.086L64.7492 300.442L39.3516 362.876Z" fill="#DBDBDB"/>
<path d="M148.629 362.876L156.814 337.227L170.058 324.185L175.966 308.803L180.09 312.147V326.86L170.058 338.565V362.973L148.629 362.876Z" fill="#DBDBDB"/>
<path d="M164.359 283.869L166.559 273.578L172.462 267.671L175.228 271.182L171.539 275.769L173.2 285.562L164.359 283.869Z" fill="#DBDBDB"/>
<path d="M221.15 362.829H507.7L453.628 249.912L427.621 238.761L400.018 184.818L381.81 165.237L365.764 129.52L346.976 132.564L314.853 207.399L296.917 220.78L267.785 297.861L239.086 325.739L221.15 362.829Z" fill="#EBEBEB"/>
<path d="M365.764 129.52L367.966 185.794L346.813 215.344L356.735 237.961L337.092 287.825L354.211 329.084L344.072 362.829H221.15L239.086 325.739L267.785 297.861L296.917 220.78L314.853 207.399L346.976 132.564L365.764 129.52Z" fill="#DBDBDB"/>
<path d="M360.482 273.328L375.236 247.681L374.078 236.809L379.575 229.003L386.229 251.166L366.268 273.328H360.482Z" fill="#DBDBDB"/>
<path d="M348.907 84.8037L349.954 86.9245L352.294 87.2653L350.601 88.9159L351.001 91.2471L348.907 90.1467L346.813 91.2471L347.213 88.9159L345.52 87.2653L347.86 86.9245L348.907 84.8037Z" fill="#DBDBDB"/>
<path d="M152.167 190.88L153.214 193.002L155.554 193.342L153.86 194.992L154.26 197.324L152.167 196.223L150.073 197.324L150.473 194.992L148.779 193.342L151.119 193.002L152.167 190.88Z" fill="#DBDBDB"/>
<path d="M425.513 7.0498L426.559 9.17057L428.9 9.51142L427.207 11.162L427.607 13.4932L425.513 12.3928L423.419 13.4932L423.819 11.162L422.125 9.51142L424.466 9.17057L425.513 7.0498Z" fill="#DBDBDB"/>
<path d="M190.429 10.2703L191.475 12.391L193.816 12.7308L192.123 14.3825L192.523 16.7136L190.429 15.6133L188.335 16.7136L188.735 14.3825L187.041 12.7308L189.382 12.391L190.429 10.2703Z" fill="#DBDBDB"/>
<path d="M488.515 184.437L489.561 186.557L491.902 186.898L490.208 188.549L490.608 190.88L488.515 189.78L486.42 190.88L486.82 188.549L485.127 186.898L487.468 186.557L488.515 184.437Z" fill="#DBDBDB"/>
<path d="M257.858 81.1572L258.905 83.2791L261.246 83.6188L259.553 85.2694L259.953 87.6006L257.858 86.5002L255.765 87.6006L256.165 85.2694L254.471 83.6188L256.812 83.2791L257.858 81.1572Z" fill="#DBDBDB"/>
<path d="M49.3233 37.4736L50.37 39.5944L52.7099 39.9342L51.0166 41.5858L51.4166 43.917L49.3233 42.8155L47.2288 43.917L47.6289 41.5858L45.9355 39.9342L48.2755 39.5944L49.3233 37.4736Z" fill="#DBDBDB"/>
<path d="M94.4932 164.12L95.5399 166.242L97.8809 166.582L96.1865 168.232L96.5866 170.563L94.4932 169.463L92.3998 170.563L92.7988 168.232L91.1055 166.582L93.4465 166.242L94.4932 164.12Z" fill="#DBDBDB"/>
<path d="M49.323 200.226L49.9696 201.536L51.4163 201.746L50.3697 202.767L50.6163 204.207L49.323 203.527L48.0286 204.207L48.2752 202.767L47.2285 201.746L48.6752 201.536L49.323 200.226Z" fill="#DBDBDB"/>
<path d="M196.505 67.1603L197.152 68.4711L198.599 68.6815L197.552 69.7019L197.8 71.142L196.505 70.4625L195.211 71.142L195.459 69.7019L194.412 68.6815L195.859 68.4711L196.505 67.1603Z" fill="#DBDBDB"/>
<path d="M305.246 183.676L305.893 184.987L307.339 185.197L306.292 186.217L306.54 187.659L305.246 186.978L303.952 187.659L304.199 186.217L303.152 185.197L304.599 184.987L305.246 183.676Z" fill="#DBDBDB"/>
<path d="M60.6891 48.8379L61.3368 50.1487L62.7824 50.3591L61.7357 51.3795L61.9834 52.8207L60.6891 52.1401L59.3947 52.8207L59.6424 51.3795L58.5957 50.3591L60.0424 50.1487L60.6891 48.8379Z" fill="#DBDBDB"/>
<path d="M428.9 165.351L429.547 166.661L430.993 166.872L429.947 167.892L430.194 169.333L428.9 168.653L427.607 169.333L427.853 167.892L426.807 166.872L428.253 166.661L428.9 165.351Z" fill="#DBDBDB"/>
<path d="M103.232 227.013L103.88 228.325L105.326 228.534L104.279 229.554L104.526 230.996L103.232 230.315L101.939 230.996L102.185 229.554L101.139 228.534L102.585 228.325L103.232 227.013Z" fill="#DBDBDB"/>
<path d="M78.1109 157.052L78.7576 158.363L80.2043 158.573L79.1576 159.593L79.4053 161.034L78.1109 160.354L76.8166 161.034L77.0643 159.593L76.0176 158.573L77.4643 158.363L78.1109 157.052Z" fill="#DBDBDB"/>
<path d="M290.488 57.0059L291.136 58.3167L292.582 58.526L291.535 59.5464L291.782 60.9876L290.488 60.307L289.195 60.9876L289.441 59.5464L288.395 58.526L289.841 58.3167L290.488 57.0059Z" fill="#DBDBDB"/>
<path d="M434.025 227.013L434.672 228.325L436.118 228.534L435.072 229.554L435.318 230.996L434.025 230.315L432.731 230.996L432.978 229.554L431.932 228.534L433.378 228.325L434.025 227.013Z" fill="#DBDBDB"/>
<path d="M499.025 101.904L499.672 103.215L501.118 103.426L500.072 104.446L500.319 105.887L499.025 105.207L497.732 105.887L497.978 104.446L496.932 103.426L498.378 103.215L499.025 101.904Z" fill="#DBDBDB"/>
<path d="M441.888 99.9121L442.535 101.223L443.982 101.433L442.935 102.454L443.183 103.895L441.888 103.214L440.594 103.895L440.842 102.454L439.795 101.433L441.242 101.223L441.888 99.9121Z" fill="#DBDBDB"/>
<path d="M399.948 42.4719C394.98 51.1533 385.622 57.0059 374.9 57.0059C358.947 57.0059 346.029 44.0775 346.029 28.1252C346.029 14.3781 355.627 2.87999 368.501 -0.0244141C359.22 4.24451 352.788 13.6241 352.788 24.4997C352.788 39.4151 364.887 51.5029 379.801 51.5029C387.816 51.5018 395.013 48.0188 399.948 42.4719Z" fill="#DBDBDB"/>
<path d="M39.1426 362.864C189.301 362.194 357.745 362.188 507.903 362.864C357.744 363.541 189.301 363.535 39.1426 362.864Z" fill="#263238"/>
<path d="M513.953 372.684H33.0917C30.3802 372.684 28.1816 370.486 28.1816 367.774C28.1816 365.063 30.3802 362.864 33.0917 362.864H513.953C516.664 362.864 518.863 365.063 518.863 367.774C518.863 370.487 516.664 372.684 513.953 372.684Z" fill="#455A64"/>
<path d="M416.172 392.217H113.047C110.335 392.217 108.137 390.018 108.137 387.306C108.137 384.595 110.335 382.397 113.047 382.397H416.172C418.883 382.397 421.082 384.595 421.082 387.306C421.082 390.018 418.883 392.217 416.172 392.217Z" fill="#455A64"/>
<path d="M388.944 411.645H168.107C165.396 411.645 163.197 409.447 163.197 406.735C163.197 404.024 165.396 401.825 168.107 401.825H388.944C391.655 401.825 393.854 404.024 393.854 406.735C393.853 409.447 391.655 411.645 388.944 411.645Z" fill="#455A64"/>
<path d="M92.5774 392.217H69.5077C66.7962 392.217 64.5977 390.018 64.5977 387.306C64.5977 384.595 66.7962 382.397 69.5077 382.397H92.5774C95.2889 382.397 97.4875 384.595 97.4875 387.306C97.4864 390.018 95.2889 392.217 92.5774 392.217Z" fill="#455A64"/>
<path d="M427.099 411.645H415.564C412.853 411.645 410.654 409.447 410.654 406.735C410.654 404.024 412.853 401.825 415.564 401.825H427.099C429.81 401.825 432.009 404.024 432.009 406.735C432.009 409.447 429.81 411.645 427.099 411.645Z" fill="#455A64"/>
<path d="M255.42 382.501H128.404C129.763 382.501 130.991 381.953 131.879 381.065C132.766 380.177 133.314 378.95 133.314 377.591C133.314 374.884 131.122 372.681 128.404 372.681H255.42C254.061 372.681 252.833 373.229 251.945 374.117C251.058 375.015 250.51 376.243 250.51 377.591C250.51 380.309 252.702 382.501 255.42 382.501Z" fill="#455A64"/>
<path d="M387.324 382.501H304.012C305.371 382.501 306.598 381.953 307.486 381.065C308.374 380.177 308.922 378.95 308.922 377.591C308.922 374.884 306.73 372.681 304.012 372.681H387.324C385.965 372.681 384.738 373.229 383.85 374.116C382.962 375.015 382.414 376.243 382.414 377.591C382.414 380.309 384.606 382.501 387.324 382.501Z" fill="#455A64"/>
<path d="M324.314 401.931H196.5C197.859 401.931 199.087 401.383 199.974 400.496C200.862 399.608 201.41 398.38 201.41 397.021C201.41 394.314 199.218 392.111 196.5 392.111H324.314C322.955 392.111 321.728 392.659 320.84 393.547C319.952 394.446 319.404 395.673 319.404 397.021C319.404 399.739 321.596 401.931 324.314 401.931Z" fill="#455A64"/>
<path d="M72 362.78H377.795L321.97 225.169L295.12 211.579L266.621 145.839L247.823 121.976L231.256 78.4473L211.858 82.1583L178.695 173.359L160.176 189.666L120.147 283.604L90.5169 317.578L72 362.78Z" fill="#455A64"/>
<path d="M231.256 78.4473L233.53 147.028L211.691 183.041L221.935 210.604L201.655 271.373L219.33 321.655L208.862 362.78H72L90.5169 317.578L120.147 283.604L160.176 189.666L178.694 173.359L211.858 82.1583L231.256 78.4473Z" fill="#37474F"/>
<path d="M225.803 253.706L241.035 222.45L239.84 209.201L245.514 199.688L252.384 226.697L231.776 253.706H225.803Z" fill="#37474F"/>
<path d="M475.041 362.802H248.623L278.525 289.339L299.658 272.379L321.463 209.121L339.093 196.122L355.852 158.069H372.403L409.178 235.984L427.888 248.116L475.041 362.802Z" fill="#37474F"/>
<path d="M248.623 362.802H346.819V299.675L369.204 255.481L358.539 209.121L372.403 158.069H355.852L339.093 196.122L321.463 209.121L299.658 272.379L278.525 289.339L248.623 362.802Z" fill="#263238"/>
<path d="M372.402 362.803L380.854 329.571L394.526 312.674L400.628 292.743L404.884 297.076V316.139L394.526 331.304V362.928L372.402 362.803Z" fill="#263238"/>
<path d="M388.645 260.435L390.915 247.104L397.009 239.45L399.866 243.999L396.058 249.942L397.771 262.629L388.645 260.435Z" fill="#263238"/>
<path d="M85.7624 362.528C84.5053 363.785 69.8605 364.344 64.5351 364.344C59.2085 364.344 44.5649 363.785 43.3078 362.528C42.0506 361.271 59.7872 263.931 64.5351 263.931C69.283 263.932 87.0195 361.272 85.7624 362.528Z" fill="#263238"/>
<path d="M86.0566 337.724C82.4387 339.105 69.0346 344.562 66.1401 346.153C66.1379 345.543 66.1335 344.934 66.1324 344.323C69.3656 342.42 72.6109 340.538 75.8528 338.651C79.3326 336.626 83.07 334.82 86.3153 332.434C86.4731 332.318 86.3854 331.992 86.1673 332.083C82.59 333.572 79.268 335.781 75.9318 337.738C72.6372 339.671 69.3788 341.661 66.1302 343.668C66.116 339.003 66.1017 334.337 66.071 329.673C71.2957 327.576 76.5422 324.78 81.3471 321.909C81.5137 321.809 81.403 321.502 81.209 321.582C76.1126 323.688 70.8134 326.168 66.0667 329.046C66.0491 326.62 66.0404 324.195 66.0141 321.77C65.8803 309.28 65.8562 296.775 65.5373 284.284C68.7157 282.681 71.9894 281.267 75.1656 279.655C75.3739 279.548 75.227 279.185 75.0045 279.272C71.7812 280.529 68.6762 282.023 65.5132 283.413C65.3411 276.967 65.0956 270.526 64.7032 264.092C64.6901 263.88 64.3799 263.877 64.3711 264.092C63.9251 276.055 63.9623 288.033 64.1125 300.007C60.8201 297.379 57.3096 295.055 53.9591 292.505C53.8298 292.407 53.7038 292.626 53.832 292.725C57.3348 295.39 60.6119 298.344 64.1256 301.002C64.1344 301.678 64.1421 302.354 64.1519 303.03C60.5823 301.398 56.96 299.88 53.352 298.335C53.0692 298.213 52.8171 298.619 53.1054 298.757C56.7813 300.52 60.4431 302.316 64.1651 303.979C64.2495 309.911 64.3503 315.842 64.427 321.771C64.5619 332.127 64.7898 342.482 65.0101 352.837C58.2719 349.428 51.4767 346.106 44.6453 342.892C44.3845 342.769 44.1587 343.136 44.4163 343.283C51.0811 347.098 57.988 350.562 65.0266 353.635C65.2096 362.238 65.3882 354.406 65.4978 363.011C65.5044 363.533 66.3155 363.535 66.31 363.011C66.1905 352.037 66.1719 357.498 66.1423 346.524C69.6966 345.646 83.1215 339.896 86.3098 338.323C86.6364 338.16 86.4051 337.59 86.0566 337.724Z" fill="#37474F"/>
<path d="M195.345 362.45C194.267 363.529 181.699 364.009 177.129 364.009C172.558 364.009 159.99 363.529 158.912 362.45C157.834 361.372 173.054 277.839 177.129 277.839C181.204 277.839 196.424 361.37 195.345 362.45Z" fill="#263238"/>
<path d="M195.598 341.164C192.493 342.349 180.991 347.032 178.507 348.398C178.506 347.874 178.502 347.351 178.501 346.827C181.276 345.194 184.06 343.579 186.842 341.96C189.829 340.222 193.036 338.671 195.82 336.623C195.956 336.524 195.88 336.244 195.693 336.322C192.623 337.601 189.773 339.496 186.909 341.175C184.082 342.833 181.286 344.541 178.497 346.264C178.485 342.26 178.473 338.257 178.446 334.254C182.93 332.455 187.432 330.055 191.555 327.591C191.699 327.506 191.603 327.242 191.437 327.311C187.063 329.117 182.515 331.246 178.443 333.716C178.428 331.634 178.42 329.552 178.398 327.471C178.284 316.753 178.262 306.022 177.989 295.302C180.717 293.926 183.526 292.712 186.252 291.33C186.43 291.239 186.304 290.927 186.114 291.001C183.347 292.08 180.683 293.362 177.968 294.554C177.821 289.024 177.61 283.496 177.272 277.974C177.261 277.792 176.995 277.79 176.987 277.974C176.604 288.24 176.636 298.519 176.765 308.796C173.94 306.54 170.927 304.546 168.051 302.358C167.94 302.274 167.831 302.462 167.942 302.545C170.948 304.833 173.761 307.368 176.775 309.649C176.782 310.228 176.789 310.809 176.796 311.389C173.733 309.989 170.625 308.685 167.529 307.359C167.286 307.255 167.069 307.602 167.317 307.721C170.471 309.233 173.615 310.774 176.809 312.202C176.881 317.292 176.967 322.382 177.034 327.47C177.15 336.357 177.346 345.242 177.535 354.129C171.753 351.203 165.922 348.353 160.059 345.594C159.836 345.489 159.642 345.805 159.863 345.931C165.582 349.205 171.509 352.177 177.551 354.814C177.708 362.197 177.861 356.62 177.955 364.005C177.96 364.453 178.656 364.454 178.651 364.005C178.548 354.587 178.533 358.13 178.507 348.712C181.557 347.959 193.078 343.025 195.814 341.674C196.097 341.538 195.898 341.05 195.598 341.164Z" fill="#37474F"/>
<path d="M76.6339 362.892C77.5425 363.801 88.1254 364.204 91.9746 364.204C95.8237 364.204 106.407 363.801 107.315 362.892C108.224 361.983 95.4062 291.639 91.9746 291.639C88.543 291.639 75.7253 361.983 76.6339 362.892Z" fill="#263238"/>
<path d="M76.4212 344.966C79.0352 345.964 88.7227 349.908 90.8139 351.057C90.815 350.617 90.8183 350.176 90.8194 349.734C88.4827 348.359 86.1383 346.999 83.7951 345.635C81.2798 344.172 78.5792 342.866 76.2349 341.142C76.1209 341.057 76.1845 340.823 76.3423 340.888C78.9278 341.964 81.328 343.561 83.7392 344.974C86.1197 346.371 88.475 347.809 90.8226 349.26C90.8325 345.889 90.8435 342.517 90.8654 339.146C87.0897 337.631 83.2986 335.61 79.8265 333.536C79.7059 333.463 79.7859 333.242 79.9262 333.299C83.6099 334.82 87.4382 336.613 90.8698 338.693C90.8818 336.941 90.8884 335.187 90.907 333.435C91.0035 324.409 91.021 315.373 91.2512 306.345C88.954 305.186 86.5888 304.164 84.2927 303C84.1425 302.923 84.2488 302.66 84.4088 302.723C86.7389 303.631 88.9825 304.711 91.2687 305.716C91.3926 301.058 91.5701 296.403 91.854 291.753C91.8627 291.599 92.0874 291.597 92.094 291.753C92.4162 300.398 92.3899 309.053 92.2814 317.708C94.6597 315.809 97.197 314.129 99.6191 312.286C99.7134 312.215 99.8044 312.374 99.7112 312.444C97.1794 314.37 94.811 316.505 92.2726 318.425C92.2661 318.914 92.2606 319.403 92.254 319.891C94.834 318.712 97.4513 317.615 100.059 316.498C100.262 316.411 100.446 316.703 100.237 316.803C97.5806 318.076 94.9337 319.375 92.2441 320.578C92.1828 324.864 92.1104 329.15 92.0545 333.435C91.957 340.919 91.7926 348.402 91.6326 355.885C96.5021 353.422 101.413 351.021 106.35 348.698C106.538 348.609 106.701 348.874 106.515 348.981C101.699 351.739 96.7082 354.241 91.6205 356.463C91.4879 362.68 91.3597 357.843 91.2797 364.061C91.2753 364.438 90.6889 364.439 90.6933 364.061C90.7799 356.131 90.793 359.255 90.815 351.325C88.2459 350.691 78.5452 346.535 76.2404 345.398C76.0014 345.281 76.1691 344.869 76.4212 344.966Z" fill="#455A64"/>
<path d="M465.074 362.307C463.915 363.468 450.4 363.983 445.485 363.983C440.569 363.983 427.054 363.468 425.895 362.307C424.735 361.148 441.103 271.318 445.485 271.318C449.866 271.318 466.235 361.148 465.074 362.307Z" fill="#263238"/>
<path d="M465.346 339.417C462.008 340.692 449.637 345.728 446.966 347.197C446.965 346.633 446.961 346.071 446.959 345.508C449.942 343.751 452.936 342.015 455.929 340.273C459.141 338.405 462.59 336.736 465.584 334.535C465.73 334.427 465.649 334.127 465.447 334.21C462.146 335.586 459.08 337.623 456.002 339.429C452.961 341.212 449.954 343.049 446.956 344.902C446.943 340.597 446.93 336.291 446.902 331.986C451.723 330.052 456.565 327.472 460.998 324.822C461.153 324.73 461.05 324.446 460.871 324.52C456.167 326.464 451.278 328.752 446.897 331.409C446.882 329.171 446.873 326.932 446.849 324.694C446.726 313.167 446.703 301.628 446.41 290.1C449.344 288.621 452.364 287.316 455.295 285.828C455.487 285.731 455.352 285.394 455.146 285.475C452.171 286.636 449.306 288.014 446.387 289.297C446.228 283.349 446.001 277.404 445.639 271.466C445.627 271.27 445.341 271.268 445.333 271.466C444.921 282.506 444.956 293.559 445.094 304.612C442.056 302.186 438.816 300.041 435.725 297.688C435.605 297.597 435.489 297.8 435.606 297.89C438.839 300.349 441.863 303.075 445.105 305.528C445.113 306.151 445.121 306.776 445.129 307.4C441.835 305.894 438.492 304.492 435.162 303.066C434.902 302.954 434.669 303.328 434.934 303.455C438.327 305.082 441.707 306.74 445.141 308.274C445.219 313.749 445.312 319.222 445.384 324.692C445.509 334.25 445.718 343.806 445.923 353.362C439.704 350.216 433.433 347.151 427.129 344.184C426.889 344.071 426.679 344.409 426.917 344.545C433.068 348.067 439.441 351.263 445.938 354.099C446.107 362.04 446.271 356.041 446.373 363.983C446.379 364.464 447.127 364.466 447.122 363.983C447.012 353.856 446.995 357.666 446.967 347.537C450.247 346.728 462.636 341.422 465.58 339.968C465.882 339.819 465.668 339.294 465.346 339.417Z" fill="#455A64"/>
<path d="M409.17 362.307C408.011 363.468 394.496 363.983 389.58 363.983C384.665 363.983 371.15 363.468 369.99 362.307C368.83 361.148 385.198 271.318 389.58 271.318C393.962 271.318 410.33 361.148 409.17 362.307Z" fill="#263238"/>
<path d="M409.439 339.417C406.1 340.692 393.731 345.728 391.059 347.197C391.058 346.633 391.053 346.071 391.051 345.508C394.034 343.751 397.029 342.015 400.022 340.273C403.233 338.405 406.682 336.736 409.676 334.535C409.822 334.427 409.741 334.127 409.539 334.21C406.238 335.586 403.173 337.623 400.094 339.429C397.054 341.212 394.046 343.049 391.049 344.902C391.036 340.597 391.023 336.291 390.994 331.986C395.815 330.052 400.657 327.472 405.091 324.822C405.245 324.73 405.142 324.446 404.964 324.52C400.261 326.464 395.37 328.752 390.99 331.409C390.974 329.171 390.966 326.932 390.941 324.694C390.819 313.167 390.796 301.628 390.502 290.1C393.436 288.621 396.455 287.316 399.387 285.828C399.579 285.731 399.444 285.394 399.238 285.475C396.264 286.636 393.399 288.014 390.479 289.297C390.32 283.349 390.093 277.404 389.731 271.466C389.719 271.27 389.433 271.268 389.426 271.466C389.014 282.506 389.048 293.559 389.187 304.612C386.149 302.186 382.909 300.041 379.817 297.688C379.698 297.597 379.58 297.8 379.699 297.89C382.932 300.349 385.956 303.075 389.198 305.528C389.205 306.151 389.213 306.776 389.222 307.4C385.927 305.894 382.584 304.492 379.255 303.066C378.994 302.954 378.762 303.328 379.027 303.455C382.419 305.082 385.799 306.74 389.234 308.274C389.312 313.749 389.405 319.222 389.476 324.692C389.601 334.25 389.81 343.806 390.014 353.362C383.796 350.216 377.524 347.151 371.22 344.184C370.98 344.071 370.772 344.409 371.008 344.545C377.159 348.067 383.532 351.263 390.03 354.099C390.198 362.04 390.363 356.041 390.465 363.983C390.471 364.464 391.219 364.466 391.214 363.983C391.104 353.856 391.087 357.666 391.06 347.537C394.34 346.728 406.728 341.422 409.672 339.968C409.975 339.819 409.761 339.294 409.439 339.417Z" fill="#455A64"/>
<path d="M401.965 363.175C402.776 363.985 412.22 364.346 415.656 364.346C419.091 364.346 428.536 363.985 429.347 363.175C430.158 362.364 418.719 299.584 415.656 299.584C412.593 299.584 401.155 362.364 401.965 363.175Z" fill="#263238"/>
<path d="M401.775 347.176C404.109 348.068 412.754 351.587 414.621 352.614C414.623 352.22 414.625 351.827 414.626 351.433C412.541 350.206 410.448 348.993 408.357 347.775C406.112 346.468 403.702 345.303 401.61 343.765C401.508 343.69 401.564 343.48 401.705 343.539C404.012 344.5 406.155 345.924 408.306 347.186C410.431 348.432 412.532 349.716 414.628 351.011C414.637 348.003 414.647 344.993 414.666 341.985C411.296 340.633 407.913 338.829 404.814 336.977C404.707 336.912 404.778 336.715 404.903 336.767C408.191 338.125 411.607 339.725 414.67 341.581C414.681 340.017 414.686 338.452 414.703 336.888C414.788 328.833 414.804 320.768 415.011 312.712C412.96 311.677 410.849 310.765 408.801 309.726C408.666 309.658 408.761 309.423 408.905 309.48C410.984 310.291 412.986 311.254 415.027 312.15C415.138 307.993 415.297 303.838 415.55 299.689C415.559 299.552 415.758 299.551 415.763 299.689C416.052 307.405 416.028 315.129 415.931 322.853C418.054 321.157 420.318 319.659 422.48 318.014C422.563 317.951 422.645 318.092 422.562 318.155C420.303 319.874 418.189 321.78 415.923 323.493C415.918 323.929 415.913 324.365 415.907 324.802C418.21 323.749 420.545 322.77 422.872 321.773C423.054 321.696 423.217 321.956 423.031 322.045C420.66 323.183 418.299 324.34 415.898 325.413C415.843 329.239 415.779 333.064 415.728 336.888C415.641 343.567 415.495 350.246 415.351 356.924C419.698 354.726 424.08 352.583 428.487 350.509C428.655 350.43 428.8 350.667 428.635 350.763C424.336 353.224 419.881 355.457 415.342 357.439C415.223 362.988 415.108 358.544 415.038 364.094C415.034 364.431 414.511 364.432 414.514 364.094C414.591 357.016 414.603 359.932 414.623 352.854C412.33 352.287 403.671 348.579 401.615 347.564C401.401 347.458 401.551 347.091 401.775 347.176Z" fill="#37474F"/>
<path d="M139.285 363.047C140.096 363.858 149.54 364.218 152.976 364.218C156.411 364.218 165.857 363.857 166.668 363.047C167.479 362.236 156.04 299.456 152.976 299.456C149.913 299.456 138.474 362.237 139.285 363.047Z" fill="#263238"/>
<path d="M139.097 347.049C141.431 347.94 150.076 351.459 151.942 352.486C151.943 352.093 151.946 351.699 151.947 351.306C149.862 350.078 147.769 348.864 145.678 347.647C143.433 346.341 141.023 345.176 138.93 343.637C138.828 343.561 138.885 343.352 139.025 343.41C141.332 344.371 143.475 345.796 145.626 347.058C147.751 348.304 149.852 349.587 151.948 350.883C151.957 347.874 151.966 344.865 151.986 341.856C148.616 340.505 145.233 338.701 142.134 336.848C142.027 336.784 142.098 336.585 142.223 336.637C145.51 337.995 148.927 339.595 151.989 341.452C152 339.888 152.006 338.323 152.022 336.759C152.108 328.703 152.124 320.639 152.33 312.582C150.281 311.547 148.169 310.635 146.12 309.596C145.987 309.528 146.081 309.293 146.224 309.35C148.304 310.161 150.306 311.124 152.346 312.021C152.456 307.864 152.615 303.709 152.868 299.559C152.876 299.422 153.077 299.421 153.082 299.559C153.37 307.275 153.346 315 153.25 322.723C155.373 321.028 157.637 319.528 159.798 317.884C159.882 317.821 159.964 317.962 159.881 318.026C157.622 319.744 155.508 321.65 153.242 323.363C153.237 323.799 153.231 324.236 153.226 324.672C155.528 323.62 157.864 322.64 160.191 321.643C160.373 321.565 160.536 321.826 160.35 321.915C157.979 323.052 155.617 324.21 153.217 325.283C153.162 329.11 153.097 332.935 153.047 336.759C152.959 343.438 152.814 350.117 152.67 356.795C157.016 354.596 161.399 352.453 165.806 350.38C165.973 350.301 166.119 350.537 165.954 350.633C161.655 353.093 157.201 355.327 152.66 357.31C152.542 362.859 152.427 358.54 152.357 364.091C152.352 364.427 151.829 364.428 151.833 364.091C151.909 357.013 151.922 359.802 151.941 352.723C149.648 352.157 140.99 348.448 138.934 347.434C138.722 347.331 138.871 346.963 139.097 347.049Z" fill="#37474F"/>
<path d="M220.607 362.921C221.419 363.731 230.863 364.092 234.299 364.092C237.734 364.092 247.179 363.731 247.99 362.921C248.801 362.11 237.361 299.33 234.299 299.33C231.235 299.33 219.796 362.11 220.607 362.921Z" fill="#263238"/>
<path d="M220.42 346.923C222.753 347.814 231.398 351.333 233.265 352.36C233.266 351.966 233.269 351.573 233.27 351.179C231.185 349.952 229.092 348.738 227.001 347.521C224.757 346.215 222.347 345.049 220.253 343.511C220.151 343.436 220.208 343.226 220.349 343.285C222.656 344.246 224.798 345.67 226.95 346.932C229.075 348.179 231.176 349.462 233.271 350.757C233.28 347.749 233.29 344.739 233.31 341.731C229.94 340.379 226.556 338.575 223.458 336.723C223.351 336.659 223.422 336.461 223.547 336.513C226.834 337.871 230.251 339.471 233.313 341.327C233.324 339.764 233.331 338.198 233.347 336.634C233.433 328.579 233.449 320.514 233.654 312.458C231.604 311.423 229.492 310.511 227.444 309.472C227.31 309.404 227.405 309.169 227.548 309.226C229.627 310.037 231.63 311 233.669 311.897C233.78 307.739 233.939 303.585 234.192 299.435C234.201 299.298 234.4 299.297 234.406 299.435C234.694 307.151 234.67 314.876 234.574 322.599C236.696 320.904 238.961 319.405 241.122 317.76C241.205 317.697 241.288 317.838 241.204 317.902C238.944 319.62 236.831 321.525 234.565 323.239C234.559 323.675 234.554 324.112 234.548 324.548C236.851 323.496 239.187 322.516 241.513 321.519C241.695 321.442 241.858 321.703 241.672 321.792C239.302 322.929 236.94 324.087 234.538 325.16C234.484 328.987 234.419 332.812 234.37 336.636C234.283 343.315 234.136 349.994 233.994 356.671C238.339 354.473 242.722 352.33 247.128 350.257C247.296 350.178 247.442 350.414 247.276 350.51C242.978 352.97 238.522 355.204 233.983 357.187C233.864 362.736 233.749 358.543 233.678 364.094C233.674 364.43 233.151 364.431 233.154 364.094C233.232 357.016 233.243 359.678 233.263 352.6C230.971 352.033 222.311 348.325 220.255 347.311C220.045 347.204 220.194 346.837 220.42 346.923Z" fill="#37474F"/>
<path d="M476.379 362.92C477.19 363.73 486.634 364.091 490.07 364.091C493.505 364.091 502.95 363.73 503.761 362.92C504.572 362.109 493.132 299.329 490.07 299.329C487.007 299.329 475.568 362.109 476.379 362.92Z" fill="#263238"/>
<path d="M476.19 346.922C478.524 347.813 487.169 351.332 489.035 352.359C489.036 351.965 489.04 351.572 489.041 351.178C486.955 349.951 484.863 348.737 482.772 347.52C480.527 346.214 478.117 345.049 476.024 343.51C475.922 343.435 475.979 343.225 476.119 343.284C478.426 344.245 480.569 345.669 482.72 346.931C484.845 348.178 486.946 349.461 489.042 350.756C489.051 347.748 489.061 344.738 489.08 341.73C485.71 340.378 482.327 338.574 479.228 336.722C479.121 336.658 479.192 336.46 479.317 336.512C482.604 337.87 486.021 339.47 489.084 341.327C489.095 339.763 489.101 338.197 489.118 336.633C489.203 328.578 489.219 320.513 489.424 312.457C487.374 311.422 485.263 310.51 483.214 309.471C483.081 309.403 483.175 309.168 483.319 309.225C485.398 310.036 487.4 310.999 489.44 311.896C489.55 307.738 489.709 303.584 489.963 299.434C489.971 299.297 490.171 299.296 490.176 299.434C490.465 307.15 490.44 314.875 490.344 322.598C492.467 320.903 494.731 319.404 496.893 317.759C496.976 317.696 497.058 317.837 496.975 317.901C494.716 319.619 492.602 321.524 490.335 323.238C490.33 323.674 490.324 324.111 490.319 324.547C492.621 323.495 494.957 322.515 497.284 321.519C497.466 321.441 497.629 321.702 497.443 321.791C495.072 322.928 492.71 324.086 490.31 325.159C490.255 328.986 490.191 332.811 490.141 336.635C490.055 343.314 489.908 349.993 489.765 356.671C494.111 354.472 498.494 352.329 502.9 350.256C503.067 350.177 503.213 350.413 503.048 350.509C498.749 352.969 494.294 355.203 489.754 357.186C489.636 362.735 489.521 358.542 489.45 364.093C489.445 364.429 488.922 364.43 488.926 364.093C489.002 357.015 489.015 359.677 489.034 352.599C486.741 352.032 478.083 348.324 476.027 347.31C475.816 347.203 475.966 346.836 476.19 346.922Z" fill="#37474F"/>
<path d="M374.607 358.406H372.98V362.972H374.607V358.406Z" fill="#263238"/>
<path d="M296.125 358.406H294.498V362.972H296.125V358.406Z" fill="#263238"/>
<path d="M294.498 362.972L317.399 328.912L340.907 362.972H294.498Z" fill="#38A993"/>
<path opacity="0.1" d="M294.498 362.972L317.399 328.912L340.907 362.972H294.498Z" fill="black"/>
<path d="M317.398 328.912H350.979L374.314 362.972H340.907L317.398 328.912Z" fill="#38A993"/>
<path d="M331.711 335.11H347.059L351.728 341.924H336.414L331.711 335.11Z" fill="white"/>
<path opacity="0.3" d="M309.875 362.972H324.318L317.4 328.912L309.875 362.972Z" fill="black"/>
<path d="M341.72 358.406H340.094V362.972H341.72V358.406Z" fill="#263238"/>
<path d="M317.399 328.912C311.852 339.976 305.424 352.141 299.42 362.972C304.977 351.902 311.392 339.736 317.399 328.912Z" fill="white"/>
<path d="M317.398 328.912C323.349 339.675 329.703 351.778 335.203 362.786C329.253 352.013 322.889 339.919 317.398 328.912Z" fill="white"/>
<path d="M309.873 362.972C309.873 362.972 308.832 358.146 303.844 353.895L317.398 328.912L309.873 362.972Z" fill="#38A993"/>
<path d="M324.316 362.972L317.398 328.912L331.516 355.196C331.516 355.196 325.27 356 324.316 362.972Z" fill="#38A993"/>
<path d="M193.578 123.465C193.578 123.453 193.578 123.453 193.566 123.453C193.299 123.151 193.008 122.86 192.706 122.593C192.706 122.582 192.706 122.582 192.694 122.582C192.426 122.28 192.136 121.989 191.833 121.722C191.833 121.71 191.833 121.71 191.821 121.71C191.554 121.407 191.264 121.117 190.961 120.849C190.961 120.837 190.961 120.837 190.949 120.837C190.682 120.535 190.391 120.244 190.089 119.977C190.089 119.966 190.089 119.966 190.077 119.966C189.809 119.663 189.519 119.373 189.216 119.106C189.216 119.094 189.216 119.094 189.204 119.094C188.937 118.791 188.646 118.501 188.344 118.233C188.344 118.221 188.344 118.221 188.332 118.221C188.064 117.919 187.774 117.628 187.471 117.361C187.471 117.349 187.471 117.349 187.459 117.349C187.192 117.046 186.901 116.756 186.599 116.488C186.599 116.476 186.599 116.476 186.587 116.476C186.319 116.174 186.029 115.883 185.727 115.616C185.727 115.604 185.727 115.604 185.716 115.604C184.832 114.638 183.809 113.813 182.658 113.15V27.012C182.658 26.5582 182.436 26.3259 182.436 25.8721C182.436 25.186 182.436 24.9537 182.204 24.5C182.204 24.2676 181.983 23.8139 181.983 23.5815C181.75 22.8954 181.75 22.6631 181.518 22.2093C181.286 21.977 181.064 21.5232 181.064 21.2909C180.599 20.6048 180.378 20.3724 180.146 20.151C179.913 19.9187 179.692 19.4649 179.46 19.2326L178.541 18.3141C178.541 18.1749 178.367 18.0346 178.17 17.9415C178.053 17.8253 177.902 17.6741 177.716 17.4877L177.67 17.4417C177.67 17.3025 177.496 17.1622 177.297 17.0702C177.181 16.954 177.03 16.8027 176.843 16.6164L176.797 16.5693C176.797 16.4301 176.623 16.2898 176.425 16.1967C176.309 16.0805 176.157 15.9292 175.971 15.7429L175.925 15.6969C175.925 15.5577 175.751 15.4174 175.553 15.3242C175.437 15.2081 175.286 15.0568 175.1 14.8705L175.054 14.8245C175.054 14.6853 174.879 14.545 174.682 14.4518C174.566 14.3357 174.415 14.1844 174.228 13.9981L174.182 13.951C174.182 13.8118 174.008 13.6715 173.81 13.5783C173.694 13.4621 173.542 13.3109 173.356 13.1246L173.31 13.0774C173.31 12.9383 173.136 12.798 172.938 12.7048C172.822 12.5886 172.671 12.4374 172.485 12.2511L172.439 12.205C172.439 12.0658 172.264 11.9255 172.067 11.8335C171.951 11.7173 171.8 11.5661 171.613 11.3797L171.567 11.3337C171.567 11.1945 171.393 11.0542 171.195 10.9611C171.079 10.8449 170.927 10.6936 170.741 10.5073L170.695 10.4602C170.695 10.321 170.521 10.1807 170.323 10.0876L169.824 9.58778C169.824 9.36638 169.37 9.13404 169.137 9.13404C169.137 8.90169 168.916 8.90168 168.916 8.90168C168.451 8.68029 168.218 8.44794 167.765 8.21558C167.533 7.98323 167.079 7.76184 166.625 7.29714C166.393 7.29714 165.939 7.07574 165.707 7.07574C165.253 6.84339 164.556 6.8434 164.335 6.61104C163.881 6.61104 163.649 6.61104 163.184 6.38965H161.812C161.59 6.38965 161.59 6.38965 161.358 6.38965C161.126 6.38965 160.904 6.38965 160.904 6.38965H159.3C159.067 6.61104 158.614 6.61104 158.381 6.61104C157.695 6.8434 157.242 6.84339 157.009 7.07574C156.555 7.07574 156.323 7.29714 156.091 7.76184C155.405 7.76184 155.183 7.98323 154.719 8.21558C154.497 8.44794 154.032 8.68029 153.8 8.90168C153.579 9.13403 153.346 9.36638 152.66 9.58778C152.44 10.0525 152.206 10.2739 151.974 10.5062C151.742 10.7386 151.742 10.96 151.52 10.96L66.8456 116.24C62.7411 121.414 63.1247 128.635 67.9855 133.077C68.2529 133.391 68.5433 133.682 68.8579 133.95C69.1253 134.263 69.4157 134.555 69.7303 134.822C69.9977 135.136 70.2882 135.427 70.6027 135.695C70.8701 136.008 71.1606 136.3 71.4751 136.567C71.7426 136.881 72.033 137.172 72.3475 137.439C72.615 137.753 72.9054 138.044 73.22 138.312C73.4874 138.625 73.7778 138.917 74.0924 139.184C74.3598 139.498 74.6502 139.789 74.9648 140.057C75.2322 140.37 75.5227 140.662 75.8372 140.929C76.36 141.522 76.965 142.08 77.6281 142.581C79.9187 144.639 82.6631 145.325 85.4075 145.325H148.779V154C148.779 157.791 150.338 161.116 152.873 163.395L152.908 163.43C153.175 163.72 153.455 164 153.745 164.267C153.757 164.279 153.768 164.279 153.768 164.29C154.036 164.593 154.326 164.872 154.618 165.14L154.653 165.175C154.92 165.465 155.2 165.745 155.49 166.012C155.502 166.024 155.513 166.024 155.513 166.035C155.781 166.338 156.071 166.616 156.363 166.883L156.398 166.919C156.665 167.209 156.944 167.488 157.235 167.756C157.247 167.768 157.258 167.768 157.258 167.779C157.525 168.081 157.816 168.361 158.107 168.627L158.142 168.662C158.41 168.953 158.689 169.232 158.98 169.5C158.992 169.512 159.003 169.512 159.003 169.523C159.27 169.825 159.561 170.105 159.851 170.372L159.886 170.407C160.154 170.698 160.433 170.977 160.723 171.244C160.736 171.255 160.747 171.255 160.747 171.268C163.026 173.767 166.328 175.314 170.083 175.314C177.177 175.314 182.664 169.814 182.664 162.721V145.325H184.955C192.048 145.325 197.769 139.836 197.769 132.744C197.764 129.104 196.147 125.779 193.578 123.465ZM148.776 74.4534V111.442H118.974L148.776 74.4534Z" fill="#38A993"/>
<path opacity="0.1" d="M193.578 123.465C193.578 123.453 193.578 123.453 193.566 123.453C193.299 123.151 193.008 122.86 192.706 122.593C192.706 122.582 192.706 122.582 192.694 122.582C192.426 122.28 192.136 121.989 191.833 121.722C191.833 121.71 191.833 121.71 191.821 121.71C191.554 121.407 191.264 121.117 190.961 120.849C190.961 120.837 190.961 120.837 190.949 120.837C190.682 120.535 190.391 120.244 190.089 119.977C190.089 119.966 190.089 119.966 190.077 119.966C189.809 119.663 189.519 119.373 189.216 119.106C189.216 119.094 189.216 119.094 189.204 119.094C188.937 118.791 188.646 118.501 188.344 118.233C188.344 118.221 188.344 118.221 188.332 118.221C188.064 117.919 187.774 117.628 187.471 117.361C187.471 117.349 187.471 117.349 187.459 117.349C187.192 117.046 186.901 116.756 186.599 116.488C186.599 116.476 186.599 116.476 186.587 116.476C186.319 116.174 186.029 115.883 185.727 115.616C185.727 115.604 185.727 115.604 185.716 115.604C184.832 114.638 183.809 113.813 182.658 113.15V27.012C182.658 26.5582 182.436 26.3259 182.436 25.8721C182.436 25.186 182.436 24.9537 182.204 24.5C182.204 24.2676 181.983 23.8139 181.983 23.5815C181.75 22.8954 181.75 22.6631 181.518 22.2093C181.286 21.977 181.064 21.5232 181.064 21.2909C180.599 20.6048 180.378 20.3724 180.146 20.151C179.913 19.9187 179.692 19.4649 179.46 19.2326L178.541 18.3141C178.541 18.1749 178.367 18.0346 178.17 17.9415C178.053 17.8253 177.902 17.6741 177.716 17.4877L177.67 17.4417C177.67 17.3025 177.496 17.1622 177.297 17.0702C177.181 16.954 177.03 16.8027 176.843 16.6164L176.797 16.5693C176.797 16.4301 176.623 16.2898 176.425 16.1967C176.309 16.0805 176.157 15.9292 175.971 15.7429L175.925 15.6969C175.925 15.5577 175.751 15.4174 175.553 15.3242C175.437 15.2081 175.286 15.0568 175.1 14.8705L175.054 14.8245C175.054 14.6853 174.879 14.545 174.682 14.4518C174.566 14.3357 174.415 14.1844 174.228 13.9981L174.182 13.951C174.182 13.8118 174.008 13.6715 173.81 13.5783C173.694 13.4621 173.542 13.3109 173.356 13.1246L173.31 13.0774C173.31 12.9383 173.136 12.798 172.938 12.7048C172.822 12.5886 172.671 12.4374 172.485 12.2511L172.439 12.205C172.439 12.0658 172.264 11.9255 172.067 11.8335C171.951 11.7173 171.8 11.5661 171.613 11.3797L171.567 11.3337C171.567 11.1945 171.393 11.0542 171.195 10.9611C171.079 10.8449 170.927 10.6936 170.741 10.5073L170.695 10.4602C170.695 10.321 170.521 10.1807 170.323 10.0876L169.824 9.58778C169.824 9.36638 169.37 9.13404 169.137 9.13404C169.137 8.90169 168.916 8.90168 168.916 8.90168C168.451 8.68029 168.218 8.44794 167.765 8.21558C167.533 7.98323 167.079 7.76184 166.625 7.29714C166.393 7.29714 165.939 7.07574 165.707 7.07574C165.253 6.84339 164.556 6.8434 164.335 6.61104C163.881 6.61104 163.649 6.61104 163.184 6.38965H161.812C161.59 6.38965 161.59 6.38965 161.358 6.38965C161.126 6.38965 160.904 6.38965 160.904 6.38965H159.3C159.067 6.61104 158.614 6.61104 158.381 6.61104C157.695 6.8434 157.242 6.84339 157.009 7.07574C156.555 7.07574 156.323 7.29714 156.091 7.76184C155.405 7.76184 155.183 7.98323 154.719 8.21558C154.497 8.44794 154.032 8.68029 153.8 8.90168C153.579 9.13403 153.346 9.36638 152.66 9.58778C152.44 10.0525 152.206 10.2739 151.974 10.5062C151.742 10.7386 151.742 10.96 151.52 10.96L66.8456 116.24C62.7411 121.414 63.1247 128.635 67.9855 133.077C68.2529 133.391 68.5433 133.682 68.8579 133.95C69.1253 134.263 69.4157 134.555 69.7303 134.822C69.9977 135.136 70.2882 135.427 70.6027 135.695C70.8701 136.008 71.1606 136.3 71.4751 136.567C71.7426 136.881 72.033 137.172 72.3475 137.439C72.615 137.753 72.9054 138.044 73.22 138.312C73.4874 138.625 73.7778 138.917 74.0924 139.184C74.3598 139.498 74.6502 139.789 74.9648 140.057C75.2322 140.37 75.5227 140.662 75.8372 140.929C76.36 141.522 76.965 142.08 77.6281 142.581C79.9187 144.639 82.6631 145.325 85.4075 145.325H148.779V154C148.779 157.791 150.338 161.116 152.873 163.395L152.908 163.43C153.175 163.72 153.455 164 153.745 164.267C153.757 164.279 153.768 164.279 153.768 164.29C154.036 164.593 154.326 164.872 154.618 165.14L154.653 165.175C154.92 165.465 155.2 165.745 155.49 166.012C155.502 166.024 155.513 166.024 155.513 166.035C155.781 166.338 156.071 166.616 156.363 166.883L156.398 166.919C156.665 167.209 156.944 167.488 157.235 167.756C157.247 167.768 157.258 167.768 157.258 167.779C157.525 168.081 157.816 168.361 158.107 168.627L158.142 168.662C158.41 168.953 158.689 169.232 158.98 169.5C158.992 169.512 159.003 169.512 159.003 169.523C159.27 169.825 159.561 170.105 159.851 170.372L159.886 170.407C160.154 170.698 160.433 170.977 160.723 171.244C160.736 171.255 160.747 171.255 160.747 171.268C163.026 173.767 166.328 175.314 170.083 175.314C177.177 175.314 182.664 169.814 182.664 162.721V145.325H184.955C192.048 145.325 197.769 139.836 197.769 132.744C197.764 129.104 196.147 125.779 193.578 123.465ZM148.776 74.4534V111.442H118.974L148.776 74.4534Z" fill="black"/>
<path d="M189.049 124.022C189.049 131.117 183.328 136.609 176.232 136.609H173.945V154.002C173.945 161.097 168.453 166.589 161.359 166.589C154.264 166.589 148.772 161.097 148.772 154.002V136.609H77.1406H76.9116H76.6825C73.9359 136.609 71.1905 135.922 68.9009 133.862C63.1798 129.514 62.4937 121.734 66.8426 116.241L151.518 10.9686C151.748 10.9686 151.748 10.7396 151.977 10.5116C152.206 10.2825 152.435 10.0535 152.664 9.59533C153.348 9.36627 153.577 9.1383 153.806 8.90924C154.035 8.68017 154.493 8.45111 154.722 8.22205C155.18 7.99298 155.409 7.76392 156.093 7.76392C156.322 7.30689 156.551 7.07782 157.009 7.07782C157.239 6.84876 157.697 6.84875 158.384 6.61969C158.613 6.61969 159.069 6.61969 159.297 6.39062C159.755 6.39062 160.442 6.39062 160.9 6.39062C160.9 6.39062 161.129 6.39062 161.358 6.39062C161.587 6.39062 161.587 6.39062 161.814 6.39062C162.272 6.39062 162.96 6.39062 163.189 6.39062C163.647 6.61969 163.876 6.61969 164.334 6.61969C164.561 6.84875 165.248 6.84876 165.706 7.07782C165.935 7.07782 166.393 7.30689 166.622 7.30689C167.081 7.76392 167.537 7.99298 167.766 8.22205C168.224 8.45111 168.453 8.68017 168.911 8.90924C168.911 8.90924 169.14 8.90924 169.14 9.1383C169.369 9.1383 169.827 9.36627 169.827 9.59533C170.285 10.0535 170.512 10.2825 170.741 10.5116C170.97 10.7396 171.199 11.1977 171.428 11.4267C171.657 11.6558 171.887 11.8849 172.345 12.571C172.345 12.8 172.574 13.2582 172.803 13.4872C173.032 13.9443 173.032 14.1733 173.261 14.8605C173.261 15.0885 173.487 15.5466 173.487 15.7757C173.716 16.2338 173.716 16.4618 173.716 17.149C173.716 17.6071 173.945 17.8362 173.945 18.2932C173.945 18.5222 173.945 18.7513 173.945 18.9804V111.437H176.232C183.329 111.436 189.049 117.157 189.049 124.022ZM148.772 54.9084L103.23 111.436H148.772V54.9084Z" fill="#38A993"/>
<path d="M322.922 40.5118C320.318 36.5465 317.317 32.8727 313.969 29.6165C313.84 29.4773 313.713 29.349 313.573 29.2329C313.538 29.1978 313.503 29.1517 313.457 29.1167C313.353 29.0005 313.247 28.8843 313.131 28.7791C312.841 28.4657 312.526 28.1741 312.224 27.8716C312.201 27.8486 312.166 27.8135 312.143 27.8015C312.039 27.6974 311.933 27.5921 311.829 27.488C311.794 27.4529 311.759 27.4069 311.713 27.3718C311.608 27.2557 311.504 27.1395 311.387 27.0343C311.097 26.7208 310.782 26.4293 310.48 26.1279C310.457 26.1049 310.422 26.0698 310.399 26.0577C310.294 25.9536 310.19 25.8484 310.085 25.7443C310.05 25.7092 310.015 25.6632 309.969 25.6281C309.865 25.5119 309.76 25.3958 309.644 25.2905C309.353 24.9771 309.039 24.6855 308.737 24.3831C308.714 24.36 308.679 24.325 308.656 24.3129C308.551 24.2088 308.447 24.1036 308.342 23.9995C308.307 23.9644 308.272 23.9184 308.226 23.8833C308.12 23.7671 308.016 23.6509 307.9 23.5457C307.61 23.2323 307.295 22.9407 306.993 22.6382C306.97 22.6152 306.934 22.5801 306.911 22.5681C306.806 22.4519 306.714 22.3478 306.598 22.2546C306.563 22.2196 306.528 22.1735 306.482 22.1384C297.295 12.6613 285.307 6.39441 271.866 6.39441C253.784 6.39441 238.912 17.1505 229.296 31.7898C219.226 46.4412 213.971 65.4414 213.738 86.4879C213.971 107.313 219.227 126.535 229.296 141.186C231.889 145.058 234.854 148.698 238.156 151.93C238.307 152.081 238.459 152.22 238.61 152.372C238.633 152.384 238.656 152.407 238.668 152.43C238.935 152.709 239.215 152.977 239.482 153.244C239.621 153.395 239.762 153.535 239.901 153.675C240.052 153.826 240.203 153.965 240.355 154.117C240.378 154.128 240.401 154.152 240.413 154.175C240.68 154.454 240.96 154.722 241.227 154.989C241.366 155.14 241.507 155.279 241.646 155.42C241.797 155.571 241.948 155.71 242.099 155.861C242.122 155.873 242.146 155.896 242.158 155.919C242.425 156.199 242.704 156.466 242.972 156.734C243.111 156.885 243.251 157.024 243.391 157.165C243.542 157.316 243.693 157.455 243.844 157.606C243.867 157.618 243.89 157.641 243.902 157.664C244.17 157.944 244.449 158.211 244.717 158.479C244.856 158.63 244.996 158.769 245.135 158.909C245.287 159.061 245.438 159.2 245.589 159.351C245.612 159.363 245.635 159.386 245.647 159.409C245.915 159.689 246.194 159.956 246.462 160.223C255.508 169.258 267.17 175.316 280.59 175.316C298.206 175.316 313.311 164.328 322.927 149.909C332.765 135.258 338.265 116.037 338.265 95.211C338.259 74.1634 332.76 55.1631 322.922 40.5118ZM293.143 127C286.504 136.838 278.958 141.186 271.865 141.186C267.957 141.186 263.842 139.872 259.795 137.034C259.47 136.616 259.155 136.174 258.842 135.72C252.435 126.104 247.853 111.465 247.853 95.2088C247.853 78.7315 252.435 64.3136 258.842 54.4759C265.714 44.8596 273.493 40.2904 280.587 40.5107C284.354 40.3945 288.25 41.6275 292.075 44.2667C292.435 44.7555 292.796 45.2432 293.145 45.7551C299.552 55.5927 304.133 70.0106 304.133 86.4879C304.132 102.744 299.551 117.384 293.143 127Z" fill="#38A993"/>
<path opacity="0.1" d="M322.922 40.5118C320.318 36.5465 317.317 32.8727 313.969 29.6165C313.84 29.4773 313.713 29.349 313.573 29.2329C313.538 29.1978 313.503 29.1517 313.457 29.1167C313.353 29.0005 313.247 28.8843 313.131 28.7791C312.841 28.4657 312.526 28.1741 312.224 27.8716C312.201 27.8486 312.166 27.8135 312.143 27.8015C312.039 27.6974 311.933 27.5921 311.829 27.488C311.794 27.4529 311.759 27.4069 311.713 27.3718C311.608 27.2557 311.504 27.1395 311.387 27.0343C311.097 26.7208 310.782 26.4293 310.48 26.1279C310.457 26.1049 310.422 26.0698 310.399 26.0577C310.294 25.9536 310.19 25.8484 310.085 25.7443C310.05 25.7092 310.015 25.6632 309.969 25.6281C309.865 25.5119 309.76 25.3958 309.644 25.2905C309.353 24.9771 309.039 24.6855 308.737 24.3831C308.714 24.36 308.679 24.325 308.656 24.3129C308.551 24.2088 308.447 24.1036 308.342 23.9995C308.307 23.9644 308.272 23.9184 308.226 23.8833C308.12 23.7671 308.016 23.6509 307.9 23.5457C307.61 23.2323 307.295 22.9407 306.993 22.6382C306.97 22.6152 306.934 22.5801 306.911 22.5681C306.806 22.4519 306.714 22.3478 306.598 22.2546C306.563 22.2196 306.528 22.1735 306.482 22.1384C297.295 12.6613 285.307 6.39441 271.866 6.39441C253.784 6.39441 238.912 17.1505 229.296 31.7898C219.226 46.4412 213.971 65.4414 213.738 86.4879C213.971 107.313 219.227 126.535 229.296 141.186C231.889 145.058 234.854 148.698 238.156 151.93C238.307 152.081 238.459 152.22 238.61 152.372C238.633 152.384 238.656 152.407 238.668 152.43C238.935 152.709 239.215 152.977 239.482 153.244C239.621 153.395 239.762 153.535 239.901 153.675C240.052 153.826 240.203 153.965 240.355 154.117C240.378 154.128 240.401 154.152 240.413 154.175C240.68 154.454 240.96 154.722 241.227 154.989C241.366 155.14 241.507 155.279 241.646 155.42C241.797 155.571 241.948 155.71 242.099 155.861C242.122 155.873 242.146 155.896 242.158 155.919C242.425 156.199 242.704 156.466 242.972 156.734C243.111 156.885 243.251 157.024 243.391 157.165C243.542 157.316 243.693 157.455 243.844 157.606C243.867 157.618 243.89 157.641 243.902 157.664C244.17 157.944 244.449 158.211 244.717 158.479C244.856 158.63 244.996 158.769 245.135 158.909C245.287 159.061 245.438 159.2 245.589 159.351C245.612 159.363 245.635 159.386 245.647 159.409C245.915 159.689 246.194 159.956 246.462 160.223C255.508 169.258 267.17 175.316 280.59 175.316C298.206 175.316 313.311 164.328 322.927 149.909C332.765 135.258 338.265 116.037 338.265 95.211C338.259 74.1634 332.76 55.1631 322.922 40.5118ZM293.143 127C286.504 136.838 278.958 141.186 271.865 141.186C267.957 141.186 263.842 139.872 259.795 137.034C259.47 136.616 259.155 136.174 258.842 135.72C252.435 126.104 247.853 111.465 247.853 95.2088C247.853 78.7315 252.435 64.3136 258.842 54.4759C265.714 44.8596 273.493 40.2904 280.587 40.5107C284.354 40.3945 288.25 41.6275 292.075 44.2667C292.435 44.7555 292.796 45.2432 293.145 45.7551C299.552 55.5927 304.133 70.0106 304.133 86.4879C304.132 102.744 299.551 117.384 293.143 127Z" fill="black"/>
<path d="M213.732 86.4914C213.961 65.4362 219.224 46.4414 229.296 31.7955C238.905 17.1486 253.781 6.39246 271.861 6.39246C289.485 6.39246 304.586 17.1486 314.202 31.7955C324.04 46.4425 329.532 65.4373 329.532 86.4914C329.532 107.317 324.04 126.54 314.202 141.186C304.586 155.605 289.485 166.589 271.861 166.589C253.781 166.589 238.905 155.605 229.296 141.186C219.224 126.54 213.961 107.317 213.732 86.4914ZM304.127 86.4914C304.127 70.0142 299.551 55.5963 293.143 45.7542C286.506 36.1434 278.956 31.5654 271.86 31.7945C264.764 31.5654 256.984 36.1423 250.121 45.7542C243.712 55.5963 239.133 70.0131 239.133 86.4914C239.133 102.741 243.712 117.387 250.121 126.998C256.984 136.838 264.764 141.187 271.86 141.187C278.955 141.187 286.506 136.839 293.143 126.998C299.551 117.387 304.127 102.741 304.127 86.4914Z" fill="#38A993"/>
<path d="M478.841 123.466C478.841 123.454 478.841 123.454 478.829 123.454C478.549 123.151 478.259 122.861 477.968 122.593C477.968 122.582 477.968 122.582 477.956 122.582C477.677 122.28 477.386 121.989 477.096 121.722C477.096 121.71 477.096 121.71 477.084 121.71C476.805 121.407 476.514 121.117 476.223 120.849C476.223 120.837 476.223 120.837 476.211 120.837C475.932 120.535 475.641 120.244 475.351 119.977C475.351 119.966 475.351 119.966 475.339 119.966C475.059 119.664 474.769 119.373 474.479 119.106C474.479 119.094 474.479 119.094 474.466 119.094C474.188 118.791 473.897 118.501 473.606 118.233C473.606 118.221 473.606 118.221 473.594 118.221C473.315 117.919 473.024 117.628 472.734 117.361C472.734 117.349 472.734 117.349 472.723 117.349C472.443 117.046 472.153 116.756 471.862 116.488C471.862 116.476 471.862 116.476 471.85 116.476C471.571 116.174 471.28 115.883 470.99 115.616C470.99 115.604 470.99 115.604 470.978 115.604C470.095 114.638 469.06 113.802 467.908 113.15V27.0121C467.908 26.5584 467.687 26.326 467.687 25.8723C467.687 25.1862 467.687 24.9538 467.454 24.5001C467.454 24.2677 467.233 23.814 467.233 23.5816C467.001 22.8955 467.001 22.6632 466.768 22.2094C466.547 21.9771 466.314 21.5233 466.314 21.291C465.861 20.6049 465.628 20.3725 465.396 20.1511C465.164 19.9188 464.942 19.4651 464.71 19.2327L463.791 18.3143C463.791 18.1751 463.617 18.0348 463.419 17.9416C463.303 17.8254 463.151 17.6742 462.965 17.4879L462.919 17.4418C462.919 17.3026 462.745 17.1624 462.546 17.0703C462.43 16.9541 462.279 16.8029 462.093 16.6165L462.047 16.5694C462.047 16.4302 461.872 16.2899 461.675 16.1968C461.559 16.0806 461.408 15.9294 461.221 15.743L461.175 15.697C461.175 15.5578 461.001 15.4175 460.803 15.3244C460.686 15.2082 460.535 15.0569 460.349 14.8706L460.303 14.8246C460.303 14.6854 460.129 14.5451 459.931 14.452C459.815 14.3358 459.664 14.1845 459.478 13.9982L459.432 13.9511C459.432 13.8119 459.257 13.6716 459.06 13.5784C458.944 13.4623 458.793 13.311 458.606 13.1247L458.56 13.0776C458.56 12.9384 458.386 12.7981 458.189 12.7049C458.072 12.5887 457.921 12.4375 457.735 12.2512L457.688 12.2051C457.688 12.066 457.514 11.9257 457.315 11.8336C457.199 11.7174 457.048 11.5662 456.861 11.3799L456.815 11.3338C456.815 11.1946 456.641 11.0544 456.444 10.9612C456.328 10.845 456.176 10.6938 455.99 10.5074L455.944 10.4603C455.944 10.3211 455.77 10.1808 455.571 10.0877L455.072 9.5879C455.072 9.36651 454.618 9.13416 454.386 9.13416C454.386 8.90181 454.153 8.9018 454.153 8.9018C453.699 8.68041 453.467 8.44806 453.013 8.21571C452.781 7.98336 452.327 7.76197 451.874 7.29726C451.641 7.29726 451.187 7.07587 450.955 7.07587C450.501 6.84351 449.815 6.84352 449.583 6.61117C449.118 6.61117 448.897 6.61116 448.432 6.38977H447.06C446.839 6.38977 446.839 6.38977 446.606 6.38977C446.385 6.38977 446.152 6.38977 446.152 6.38977H444.548C444.316 6.61116 443.862 6.61117 443.629 6.61117C442.943 6.84352 442.49 6.84351 442.257 7.07587C441.803 7.07587 441.571 7.29726 441.339 7.76196C440.665 7.76196 440.431 7.98336 439.967 8.21571C439.745 8.44806 439.281 8.68041 439.059 8.9018C438.827 9.13415 438.594 9.36651 437.908 9.5879C437.676 10.0526 437.455 10.274 437.222 10.5064C436.99 10.7387 436.99 10.9601 436.768 10.9601L352.094 116.24C347.989 121.414 348.373 128.635 353.234 133.078C353.501 133.391 353.791 133.683 354.106 133.95C354.373 134.263 354.664 134.555 354.978 134.822C355.246 135.136 355.536 135.427 355.851 135.695C356.118 136.008 356.409 136.3 356.723 136.567C356.991 136.881 357.281 137.172 357.596 137.44C357.863 137.753 358.153 138.045 358.468 138.312C358.735 138.625 359.026 138.917 359.34 139.184C359.608 139.498 359.898 139.789 360.213 140.057C360.48 140.37 360.771 140.662 361.085 140.929C361.608 141.522 362.213 142.08 362.876 142.581C365.167 144.639 367.911 145.325 370.656 145.325H434.027V154C434.027 157.779 435.586 161.116 438.121 163.395C438.133 163.407 438.144 163.407 438.144 163.418C438.411 163.721 438.702 164 438.992 164.268L439.027 164.303C439.295 164.593 439.574 164.872 439.865 165.14C439.877 165.152 439.888 165.152 439.888 165.163C440.155 165.465 440.446 165.744 440.737 166.011L440.772 166.046C441.04 166.337 441.319 166.616 441.609 166.884C441.622 166.896 441.633 166.896 441.633 166.907C441.9 167.209 442.19 167.489 442.481 167.756L442.516 167.791C442.783 168.082 443.063 168.361 443.353 168.628C443.365 168.639 443.376 168.639 443.376 168.652C443.644 168.954 443.934 169.232 444.226 169.5L444.261 169.535C444.528 169.825 444.808 170.105 445.098 170.372C445.11 170.384 445.121 170.384 445.121 170.395C445.388 170.698 445.679 170.977 445.969 171.244L446.004 171.279C448.283 173.779 451.574 175.313 455.33 175.313C462.424 175.313 467.911 169.813 467.911 162.72V145.324H470.202C477.306 145.324 483.027 139.835 483.027 132.743C483.026 129.105 481.41 125.779 478.841 123.466ZM434.026 74.4536V111.442H404.224L434.026 74.4536Z" fill="#38A993"/>
<path opacity="0.1" d="M478.841 123.466C478.841 123.454 478.841 123.454 478.829 123.454C478.549 123.151 478.259 122.861 477.968 122.593C477.968 122.582 477.968 122.582 477.956 122.582C477.677 122.28 477.386 121.989 477.096 121.722C477.096 121.71 477.096 121.71 477.084 121.71C476.805 121.407 476.514 121.117 476.223 120.849C476.223 120.837 476.223 120.837 476.211 120.837C475.932 120.535 475.641 120.244 475.351 119.977C475.351 119.966 475.351 119.966 475.339 119.966C475.059 119.664 474.769 119.373 474.479 119.106C474.479 119.094 474.479 119.094 474.466 119.094C474.188 118.791 473.897 118.501 473.606 118.233C473.606 118.221 473.606 118.221 473.594 118.221C473.315 117.919 473.024 117.628 472.734 117.361C472.734 117.349 472.734 117.349 472.723 117.349C472.443 117.046 472.153 116.756 471.862 116.488C471.862 116.476 471.862 116.476 471.85 116.476C471.571 116.174 471.28 115.883 470.99 115.616C470.99 115.604 470.99 115.604 470.978 115.604C470.095 114.638 469.06 113.802 467.908 113.15V27.0121C467.908 26.5584 467.687 26.326 467.687 25.8723C467.687 25.1862 467.687 24.9538 467.454 24.5001C467.454 24.2677 467.233 23.814 467.233 23.5816C467.001 22.8955 467.001 22.6632 466.768 22.2094C466.547 21.9771 466.314 21.5233 466.314 21.291C465.861 20.6049 465.628 20.3725 465.396 20.1511C465.164 19.9188 464.942 19.4651 464.71 19.2327L463.791 18.3143C463.791 18.1751 463.617 18.0348 463.419 17.9416C463.303 17.8254 463.151 17.6742 462.965 17.4879L462.919 17.4418C462.919 17.3026 462.745 17.1624 462.546 17.0703C462.43 16.9541 462.279 16.8029 462.093 16.6165L462.047 16.5694C462.047 16.4302 461.872 16.2899 461.675 16.1968C461.559 16.0806 461.408 15.9294 461.221 15.743L461.175 15.697C461.175 15.5578 461.001 15.4175 460.803 15.3244C460.686 15.2082 460.535 15.0569 460.349 14.8706L460.303 14.8246C460.303 14.6854 460.129 14.5451 459.931 14.452C459.815 14.3358 459.664 14.1845 459.478 13.9982L459.432 13.9511C459.432 13.8119 459.257 13.6716 459.06 13.5784C458.944 13.4623 458.793 13.311 458.606 13.1247L458.56 13.0776C458.56 12.9384 458.386 12.7981 458.189 12.7049C458.072 12.5887 457.921 12.4375 457.735 12.2512L457.688 12.2051C457.688 12.066 457.514 11.9257 457.315 11.8336C457.199 11.7174 457.048 11.5662 456.861 11.3799L456.815 11.3338C456.815 11.1946 456.641 11.0544 456.444 10.9612C456.328 10.845 456.176 10.6938 455.99 10.5074L455.944 10.4603C455.944 10.3211 455.77 10.1808 455.571 10.0877L455.072 9.5879C455.072 9.36651 454.618 9.13416 454.386 9.13416C454.386 8.90181 454.153 8.9018 454.153 8.9018C453.699 8.68041 453.467 8.44806 453.013 8.21571C452.781 7.98336 452.327 7.76197 451.874 7.29726C451.641 7.29726 451.187 7.07587 450.955 7.07587C450.501 6.84351 449.815 6.84352 449.583 6.61117C449.118 6.61117 448.897 6.61116 448.432 6.38977H447.06C446.839 6.38977 446.839 6.38977 446.606 6.38977C446.385 6.38977 446.152 6.38977 446.152 6.38977H444.548C444.316 6.61116 443.862 6.61117 443.629 6.61117C442.943 6.84352 442.49 6.84351 442.257 7.07587C441.803 7.07587 441.571 7.29726 441.339 7.76196C440.665 7.76196 440.431 7.98336 439.967 8.21571C439.745 8.44806 439.281 8.68041 439.059 8.9018C438.827 9.13415 438.594 9.36651 437.908 9.5879C437.676 10.0526 437.455 10.274 437.222 10.5064C436.99 10.7387 436.99 10.9601 436.768 10.9601L352.094 116.24C347.989 121.414 348.373 128.635 353.234 133.078C353.501 133.391 353.791 133.683 354.106 133.95C354.373 134.263 354.664 134.555 354.978 134.822C355.246 135.136 355.536 135.427 355.851 135.695C356.118 136.008 356.409 136.3 356.723 136.567C356.991 136.881 357.281 137.172 357.596 137.44C357.863 137.753 358.153 138.045 358.468 138.312C358.735 138.625 359.026 138.917 359.34 139.184C359.608 139.498 359.898 139.789 360.213 140.057C360.48 140.37 360.771 140.662 361.085 140.929C361.608 141.522 362.213 142.08 362.876 142.581C365.167 144.639 367.911 145.325 370.656 145.325H434.027V154C434.027 157.779 435.586 161.116 438.121 163.395C438.133 163.407 438.144 163.407 438.144 163.418C438.411 163.721 438.702 164 438.992 164.268L439.027 164.303C439.295 164.593 439.574 164.872 439.865 165.14C439.877 165.152 439.888 165.152 439.888 165.163C440.155 165.465 440.446 165.744 440.737 166.011L440.772 166.046C441.04 166.337 441.319 166.616 441.609 166.884C441.622 166.896 441.633 166.896 441.633 166.907C441.9 167.209 442.19 167.489 442.481 167.756L442.516 167.791C442.783 168.082 443.063 168.361 443.353 168.628C443.365 168.639 443.376 168.639 443.376 168.652C443.644 168.954 443.934 169.232 444.226 169.5L444.261 169.535C444.528 169.825 444.808 170.105 445.098 170.372C445.11 170.384 445.121 170.384 445.121 170.395C445.388 170.698 445.679 170.977 445.969 171.244L446.004 171.279C448.283 173.779 451.574 175.313 455.33 175.313C462.424 175.313 467.911 169.813 467.911 162.72V145.324H470.202C477.306 145.324 483.027 139.835 483.027 132.743C483.026 129.105 481.41 125.779 478.841 123.466ZM434.026 74.4536V111.442H404.224L434.026 74.4536Z" fill="black"/>
<path d="M474.299 124.021C474.299 131.116 468.578 136.608 461.483 136.608H459.192V154.001C459.192 161.096 453.7 166.588 446.61 166.588C439.514 166.588 434.022 161.096 434.022 154.001V136.608H362.39H362.161H361.932C359.183 136.608 356.44 135.922 354.149 133.861C348.428 129.513 347.741 121.733 352.093 116.24L436.766 10.9678C436.995 10.9678 436.995 10.7387 437.224 10.5107C437.453 10.2817 437.682 10.0526 437.911 9.59448C438.598 9.36541 438.827 9.13745 439.056 8.90838C439.285 8.67932 439.743 8.45026 439.972 8.22119C440.431 7.99213 440.66 7.76306 441.341 7.76306C441.57 7.30603 441.799 7.07697 442.258 7.07697C442.487 6.84791 442.945 6.8479 443.632 6.61883C443.861 6.61883 444.319 6.61883 444.548 6.38977C445.006 6.38977 445.694 6.38977 446.152 6.38977C446.152 6.38977 446.381 6.38977 446.61 6.38977C446.839 6.38977 446.839 6.38977 447.062 6.38977C447.521 6.38977 448.208 6.38977 448.437 6.38977C448.895 6.61883 449.124 6.61883 449.582 6.61883C449.811 6.8479 450.498 6.84791 450.957 7.07697C451.186 7.07697 451.644 7.30603 451.873 7.30603C452.331 7.76307 452.784 7.99213 453.013 8.22119C453.471 8.45026 453.7 8.67932 454.158 8.90838C454.158 8.90838 454.387 8.90838 454.387 9.13745C454.616 9.13745 455.074 9.36541 455.074 9.59448C455.532 10.0526 455.761 10.2817 455.99 10.5107C456.219 10.7387 456.449 11.1968 456.678 11.4259C456.907 11.655 457.136 11.884 457.594 12.5701C457.594 12.7992 457.823 13.2573 458.052 13.4864C458.281 13.9434 458.281 14.1725 458.51 14.8597C458.51 15.0876 458.734 15.5458 458.734 15.7748C458.963 16.233 458.963 16.4609 458.963 17.1481C458.963 17.6062 459.192 17.8353 459.192 18.2923C459.192 18.5214 459.192 18.7505 459.192 18.9795V111.436H461.483C468.577 111.435 474.299 117.156 474.299 124.021ZM434.021 54.9075L388.475 111.435H434.021V54.9075Z" fill="#38A993"/>
<path opacity="0.2" d="M280.785 361.109C287.22 361.109 292.436 355.892 292.436 349.458C292.436 343.024 287.22 337.808 280.785 337.808C274.351 337.808 269.135 343.024 269.135 349.458C269.135 355.892 274.351 361.109 280.785 361.109Z" fill="#38A993"/>
<path opacity="0.2" d="M280.786 361.056C285.727 361.056 289.733 357.05 289.733 352.108C289.733 347.166 285.727 343.16 280.786 343.16C275.844 343.16 271.838 347.166 271.838 352.108C271.838 357.05 275.844 361.056 280.786 361.056Z" fill="#38A993"/>
<path d="M281.589 361.028C281.589 361.028 274.481 359.989 274.055 360.263C273.628 360.537 273.243 362.609 274.101 363.114C274.959 363.618 281.474 362.7 281.474 362.7C281.474 362.7 282.178 362.078 281.589 361.028Z" fill="#38A993"/>
<path opacity="0.49" d="M281.589 361.028C281.589 361.028 274.481 359.989 274.055 360.263C273.628 360.537 273.243 362.609 274.101 363.114C274.959 363.618 281.474 362.7 281.474 362.7C281.474 362.7 282.178 362.078 281.589 361.028Z" fill="black"/>
<path opacity="0.2" d="M274.091 360.342C274.307 360.294 274.653 361.005 274.573 361.798C274.497 362.552 274.215 363.055 274.097 363.038C273.98 363.023 273.582 362.584 273.648 361.611C273.695 360.904 273.911 360.383 274.091 360.342Z" fill="white"/>
<g opacity="0.2">
<path d="M274.836 360.54C275.245 360.512 275.654 360.505 276.063 360.526C276.268 360.535 276.473 360.553 276.678 360.579C276.781 360.592 276.883 360.61 276.988 360.637C277.098 360.665 277.177 360.687 277.279 360.704C277.67 360.772 278.078 360.799 278.481 360.835C278.887 360.866 279.292 360.901 279.7 360.939C279.292 360.978 278.883 360.994 278.475 360.989C278.065 360.984 277.657 360.966 277.244 360.898C277.145 360.881 277.028 360.847 276.94 360.823C276.847 360.798 276.748 360.78 276.651 360.763C276.454 360.728 276.253 360.705 276.051 360.678L274.836 360.54Z" fill="black"/>
<path d="M275.643 360.919C275.932 360.961 276.219 361.009 276.503 361.064C276.787 361.114 277.071 361.177 277.351 361.213C277.623 361.251 277.912 361.23 278.201 361.224C278.489 361.212 278.779 361.204 279.072 361.202C278.79 361.28 278.503 361.339 278.214 361.377C277.924 361.413 277.631 361.446 277.326 361.408C277.03 361.365 276.748 361.295 276.468 361.213C276.186 361.132 275.911 361.033 275.643 360.919Z" fill="black"/>
<path d="M279.133 361.587C279.502 361.325 279.941 361.142 280.412 361.116C280.646 361.104 280.885 361.136 281.111 361.231C281.223 361.28 281.33 361.346 281.419 361.441C281.463 361.49 281.505 361.54 281.532 361.618C281.539 361.636 281.545 361.662 281.544 361.692C281.542 361.71 281.539 361.728 281.533 361.746C281.528 361.758 281.523 361.766 281.518 361.776C281.497 361.814 281.476 361.838 281.453 361.862C281.274 362.043 281.057 362.159 280.811 362.205C280.688 362.225 280.555 362.219 280.434 362.177C280.321 362.138 280.216 362.091 280.112 362.03C280.013 361.963 279.901 361.906 279.845 361.756C279.833 361.719 279.836 361.664 279.864 361.627C279.889 361.59 279.925 361.567 279.955 361.556C280.016 361.531 280.073 361.52 280.132 361.511C280.25 361.499 280.366 361.499 280.48 361.515C280.593 361.53 280.711 361.56 280.799 361.634C280.595 361.535 280.358 361.561 280.149 361.606C280.096 361.619 280.044 361.633 280.002 361.655C279.959 361.68 279.953 361.693 279.964 361.721C279.99 361.787 280.093 361.852 280.184 361.897C280.279 361.943 280.383 361.981 280.485 362.012C280.578 362.041 280.679 362.041 280.778 362.021C280.973 361.983 281.172 361.872 281.307 361.728C281.324 361.712 281.339 361.692 281.346 361.68L281.35 361.673C281.348 361.676 281.347 361.68 281.349 361.685C281.349 361.687 281.35 361.685 281.347 361.676C281.338 361.646 281.309 361.604 281.278 361.57C281.214 361.497 281.125 361.442 281.033 361.398C280.847 361.307 280.628 361.274 280.412 361.264C280.195 361.255 279.976 361.293 279.761 361.35C279.547 361.407 279.337 361.49 279.133 361.587Z" fill="black"/>
<path d="M281.496 362.274C281.225 362.421 280.925 362.52 280.614 362.558C280.458 362.578 280.298 362.58 280.139 362.566C279.98 362.549 279.82 362.505 279.674 362.453C279.378 362.347 279.108 362.189 278.844 362.049C278.579 361.909 278.299 361.807 277.994 361.752C278.301 361.729 278.621 361.786 278.907 361.91C279.195 362.028 279.459 362.172 279.74 362.269C280.016 362.378 280.301 362.415 280.6 362.406C280.899 362.394 281.199 362.35 281.496 362.274Z" fill="black"/>
<path d="M274.572 362.881C274.939 362.882 275.304 362.886 275.667 362.892C276.028 362.892 276.398 362.904 276.739 362.853C277.103 362.776 277.483 362.778 277.847 362.795C278.214 362.81 278.579 362.852 278.941 362.914L277.846 362.948C277.481 362.963 277.125 362.968 276.773 363.047C276.391 363.099 276.027 363.075 275.66 363.046C275.293 363.013 274.931 362.959 274.572 362.881Z" fill="black"/>
<path d="M279.503 362.649C279.2 362.574 278.899 362.493 278.595 362.432C278.444 362.399 278.291 362.367 278.14 362.346C277.985 362.322 277.851 362.324 277.697 362.357C277.396 362.415 277.09 362.482 276.78 362.536C276.624 362.562 276.467 362.583 276.309 362.596C276.15 362.607 275.986 362.614 275.814 362.577C275.66 362.54 275.506 362.497 275.355 362.44C275.205 362.379 275.05 362.321 274.919 362.176C274.888 362.138 274.857 362.092 274.848 362.033C274.833 361.976 274.848 361.913 274.868 361.864C274.925 361.751 275.022 361.715 275.1 361.68C275.262 361.622 275.423 361.605 275.584 361.599C275.744 361.593 275.904 361.6 276.063 361.623C276.221 361.649 276.382 361.675 276.528 361.778C276.561 361.804 276.602 361.833 276.61 361.905C276.602 361.984 276.542 362.004 276.507 362.021C276.427 362.051 276.348 362.061 276.27 362.071C276.113 362.089 275.957 362.089 275.801 362.082C275.957 362.068 276.111 362.049 276.262 362.019C276.395 361.991 276.632 361.926 276.47 361.856C276.355 361.785 276.196 361.761 276.048 361.747C275.896 361.733 275.744 361.736 275.593 361.75C275.444 361.765 275.293 361.79 275.162 361.841C275.101 361.868 275.044 361.904 275.033 361.936C275.015 361.98 275.024 362.011 275.061 362.056C275.142 362.143 275.286 362.208 275.423 362.26C275.564 362.311 275.711 362.35 275.86 362.386C276.133 362.441 276.451 362.392 276.752 362.353C277.058 362.311 277.362 362.246 277.676 362.208C277.755 362.199 277.835 362.189 277.92 362.193C278.006 362.195 278.083 362.21 278.162 362.224C278.317 362.256 278.47 362.296 278.62 362.34C278.917 362.433 279.213 362.531 279.503 362.649Z" fill="black"/>
<path d="M277.495 361.769C277.076 361.699 276.676 361.588 276.276 361.479L275.679 361.317C275.478 361.27 275.282 361.214 275.07 361.211C275.272 361.132 275.498 361.146 275.707 361.166C275.919 361.19 276.126 361.236 276.33 361.29C276.732 361.406 277.128 361.553 277.495 361.769Z" fill="black"/>
</g>
<path d="M280.608 360.984C280.608 360.984 287.726 360.023 288.15 360.302C288.573 360.581 288.937 362.657 288.074 363.151C287.21 363.647 280.705 362.657 280.705 362.657C280.705 362.657 280.006 362.028 280.608 360.984Z" fill="#38A993"/>
<path opacity="0.49" d="M280.608 360.984C280.608 360.984 287.726 360.023 288.15 360.302C288.573 360.581 288.937 362.657 288.074 363.151C287.21 363.647 280.705 362.657 280.705 362.657C280.705 362.657 280.006 362.028 280.608 360.984Z" fill="black"/>
<path opacity="0.2" d="M288.112 360.38C287.898 360.33 287.544 361.037 287.615 361.83C287.682 362.586 287.96 363.091 288.077 363.077C288.195 363.062 288.598 362.627 288.542 361.654C288.501 360.947 288.292 360.423 288.112 360.38Z" fill="white"/>
<g opacity="0.2">
<path d="M280.863 362.448L282.083 362.515C282.286 362.523 282.488 362.535 282.688 362.533C282.788 362.532 282.888 362.532 282.984 362.522C283.074 362.513 283.196 362.499 283.296 362.5C283.715 362.501 284.121 362.551 284.525 362.616C284.929 362.68 285.329 362.764 285.725 362.87C285.317 362.84 284.911 362.807 284.506 362.769C284.102 362.738 283.696 362.696 283.299 362.698C283.196 362.697 283.113 362.706 283 362.716C282.893 362.724 282.789 362.724 282.686 362.721C282.479 362.712 282.274 362.697 282.071 362.671C281.664 362.619 281.261 362.545 280.863 362.448Z" fill="black"/>
<path d="M281.605 362.428C281.883 362.335 282.164 362.259 282.451 362.2C282.737 362.139 283.024 362.091 283.321 362.073C283.628 362.058 283.918 362.113 284.204 362.172C284.49 362.233 284.771 362.315 285.046 362.415C284.754 362.389 284.465 362.359 284.179 362.325C283.893 362.296 283.606 362.252 283.332 362.27C283.05 362.284 282.762 362.324 282.475 362.352C282.187 362.384 281.897 362.409 281.605 362.428Z" fill="black"/>
<path d="M285.135 362.035C285.331 362.148 285.534 362.246 285.745 362.317C285.955 362.391 286.17 362.446 286.386 362.454C286.602 362.462 286.823 362.445 287.016 362.37C287.111 362.331 287.204 362.284 287.273 362.217C287.307 362.186 287.339 362.146 287.351 362.118C287.355 362.11 287.354 362.107 287.354 362.11C287.352 362.114 287.353 362.119 287.355 362.122L287.351 362.114C287.345 362.102 287.332 362.081 287.317 362.064C287.193 361.91 287.003 361.786 286.812 361.731C286.715 361.703 286.614 361.696 286.519 361.716C286.415 361.739 286.307 361.769 286.209 361.807C286.115 361.845 286.007 361.903 285.975 361.966C285.962 361.992 285.968 362.006 286.008 362.034C286.048 362.059 286.099 362.078 286.151 362.096C286.356 362.157 286.59 362.202 286.801 362.118C286.708 362.186 286.587 362.205 286.473 362.212C286.358 362.218 286.242 362.21 286.126 362.189C286.067 362.176 286.01 362.16 285.952 362.131C285.924 362.118 285.889 362.091 285.867 362.053C285.843 362.013 285.843 361.959 285.858 361.923C285.925 361.777 286.042 361.729 286.145 361.67C286.253 361.618 286.362 361.578 286.477 361.55C286.602 361.517 286.734 361.522 286.855 361.551C287.099 361.617 287.306 361.749 287.469 361.943C287.49 361.97 287.509 361.995 287.526 362.034C287.531 362.045 287.535 362.053 287.539 362.065C287.544 362.083 287.546 362.101 287.547 362.119C287.545 362.149 287.537 362.175 287.528 362.192C287.494 362.267 287.45 362.314 287.401 362.359C287.305 362.446 287.193 362.504 287.077 362.545C286.845 362.623 286.603 362.636 286.37 362.605C285.905 362.543 285.482 362.325 285.135 362.035Z" fill="black"/>
<path d="M287.546 361.532C287.256 361.433 286.96 361.365 286.665 361.331C286.367 361.298 286.081 361.314 285.796 361.4C285.509 361.475 285.235 361.597 284.937 361.693C284.641 361.794 284.317 361.825 284.014 361.778C284.322 361.748 284.609 361.668 284.883 361.548C285.157 361.429 285.438 361.293 285.742 361.209C285.891 361.17 286.054 361.138 286.214 361.134C286.374 361.133 286.533 361.147 286.687 361.179C286.996 361.242 287.287 361.364 287.546 361.532Z" fill="black"/>
<path d="M283.287 360.852C283.646 360.774 284.008 360.718 284.374 360.684C284.742 360.653 285.105 360.627 285.488 360.679C285.839 360.756 286.196 360.759 286.561 360.773L287.656 360.803C287.294 360.866 286.929 360.909 286.563 360.927C286.199 360.944 285.82 360.949 285.455 360.873C285.114 360.822 284.744 360.837 284.383 360.838C284.019 360.844 283.653 360.85 283.287 360.852Z" fill="black"/>
<path d="M285.586 361.004C285.288 361.098 284.985 361.174 284.68 361.244C284.526 361.276 284.372 361.304 284.214 361.323C284.134 361.332 284.056 361.34 283.969 361.336C283.885 361.333 283.806 361.316 283.728 361.301C283.418 361.238 283.121 361.151 282.819 361.085C282.522 361.022 282.208 360.947 281.932 360.982C281.781 361.005 281.631 361.033 281.487 361.073C281.347 361.113 281.198 361.168 281.111 361.248C281.069 361.291 281.06 361.32 281.073 361.366C281.082 361.398 281.134 361.439 281.194 361.471C281.32 361.531 281.469 361.568 281.617 361.595C281.766 361.621 281.919 361.634 282.07 361.633C282.219 361.631 282.379 361.619 282.499 361.556C282.665 361.499 282.435 361.416 282.305 361.378C282.157 361.337 282.003 361.305 281.85 361.279C282.005 361.284 282.162 361.298 282.317 361.327C282.394 361.343 282.471 361.359 282.549 361.395C282.582 361.414 282.641 361.439 282.642 361.518C282.629 361.589 282.585 361.615 282.55 361.638C282.397 361.729 282.233 361.743 282.074 361.757C281.914 361.768 281.754 361.762 281.596 361.744C281.435 361.725 281.277 361.695 281.119 361.625C281.044 361.585 280.951 361.541 280.903 361.425C280.885 361.374 280.877 361.312 280.895 361.255C280.909 361.197 280.944 361.153 280.977 361.117C281.12 360.983 281.279 360.938 281.433 360.888C281.589 360.843 281.746 360.812 281.902 360.787C282.077 360.764 282.239 360.782 282.397 360.807C282.554 360.832 282.709 360.865 282.861 360.903C283.166 360.981 283.465 361.071 283.762 361.153C283.912 361.198 284.047 361.211 284.203 361.198C284.355 361.189 284.509 361.168 284.663 361.147C284.972 361.111 285.278 361.055 285.586 361.004Z" fill="black"/>
<path d="M283.519 361.725C283.137 361.912 282.731 362.027 282.318 362.11C282.111 362.148 281.901 362.178 281.688 362.185C281.477 362.189 281.252 362.185 281.057 362.091C281.268 362.104 281.468 362.063 281.672 362.031L282.28 361.916C282.69 361.842 283.096 361.762 283.519 361.725Z" fill="black"/>
<path d="M285.418 362.497C285.741 362.601 286.047 362.705 286.362 362.778C286.517 362.818 286.676 362.842 286.835 362.865C286.996 362.888 287.157 362.893 287.329 362.905C287.174 362.974 287.002 363.014 286.83 363.019C286.658 363.026 286.483 363.009 286.317 362.968C286.15 362.927 285.987 362.87 285.836 362.791C285.683 362.713 285.539 362.619 285.418 362.497Z" fill="black"/>
</g>
<path d="M286.535 345.897C286.535 346.019 286.634 346.117 286.755 346.117C286.877 346.117 286.976 346.019 286.976 345.897C286.976 345.775 286.877 345.677 286.755 345.677C286.634 345.677 286.535 345.775 286.535 345.897Z" fill="#38A993"/>
<path d="M284.172 336.423C284.172 336.545 284.271 336.644 284.392 336.644C284.514 336.644 284.612 336.545 284.612 336.423C284.612 336.302 284.514 336.203 284.392 336.203C284.271 336.203 284.172 336.302 284.172 336.423Z" fill="#38A993"/>
<path d="M275.739 344.458C275.835 344.532 275.973 344.514 276.048 344.417C276.122 344.321 276.104 344.183 276.007 344.108C275.911 344.034 275.773 344.052 275.698 344.149C275.624 344.245 275.642 344.383 275.739 344.458Z" fill="#38A993"/>
<path d="M273.762 357.932C273.762 358.054 273.86 358.152 273.982 358.152C274.104 358.152 274.202 358.054 274.202 357.932C274.202 357.81 274.104 357.712 273.982 357.712C273.86 357.712 273.762 357.81 273.762 357.932Z" fill="#38A993"/>
<path d="M287.553 356.437C287.553 356.559 287.651 356.657 287.773 356.657C287.895 356.657 287.993 356.559 287.993 356.437C287.993 356.315 287.895 356.217 287.773 356.217C287.651 356.217 287.553 356.314 287.553 356.437Z" fill="#38A993"/>
<path d="M286.238 347.339C286.238 347.504 286.372 347.637 286.536 347.637C286.701 347.637 286.835 347.504 286.835 347.339C286.835 347.175 286.701 347.041 286.536 347.041C286.372 347.041 286.238 347.175 286.238 347.339Z" fill="#38A993"/>
<path d="M276.939 341.986C277.069 342.087 277.256 342.063 277.357 341.931C277.458 341.801 277.434 341.613 277.302 341.512C277.172 341.412 276.985 341.436 276.884 341.567C276.784 341.699 276.808 341.886 276.939 341.986Z" fill="#38A993"/>
<path d="M274.328 353.033C274.328 353.198 274.462 353.332 274.626 353.332C274.791 353.332 274.924 353.198 274.924 353.033C274.924 352.869 274.791 352.735 274.626 352.735C274.462 352.735 274.328 352.869 274.328 353.033Z" fill="#38A993"/>
<path d="M285.762 346.914C285.762 346.985 285.82 347.043 285.891 347.043C285.962 347.043 286.02 346.985 286.02 346.914C286.02 346.842 285.962 346.784 285.891 346.784C285.82 346.784 285.762 346.842 285.762 346.914Z" fill="#38A993"/>
<path d="M286.995 351.227C287.066 351.227 287.124 351.169 287.124 351.098C287.124 351.027 287.066 350.969 286.995 350.969C286.923 350.969 286.865 351.027 286.865 351.098C286.865 351.169 286.923 351.227 286.995 351.227Z" fill="#38A993"/>
<path d="M288.553 355.251C288.553 355.323 288.611 355.381 288.682 355.381C288.753 355.381 288.811 355.323 288.811 355.251C288.811 355.18 288.753 355.122 288.682 355.122C288.611 355.122 288.553 355.18 288.553 355.251Z" fill="#38A993"/>
<path d="M273.893 352.107C273.893 352.178 273.951 352.236 274.022 352.236C274.093 352.236 274.151 352.178 274.151 352.107C274.151 352.035 274.093 351.977 274.022 351.977C273.951 351.977 273.893 352.035 273.893 352.107Z" fill="#38A993"/>
<path d="M287.514 342.819C287.514 342.89 287.572 342.948 287.643 342.948C287.714 342.948 287.772 342.89 287.772 342.819C287.772 342.748 287.714 342.689 287.643 342.689C287.572 342.689 287.514 342.748 287.514 342.819Z" fill="#38A993"/>
<path d="M281.688 341.75C281.759 341.75 281.817 341.692 281.817 341.621C281.817 341.549 281.759 341.491 281.688 341.491C281.616 341.491 281.559 341.549 281.559 341.621C281.559 341.692 281.616 341.75 281.688 341.75Z" fill="#38A993"/>
<path d="M280.715 339.802C280.787 339.802 280.845 339.744 280.845 339.672C280.845 339.601 280.787 339.543 280.715 339.543C280.644 339.543 280.586 339.601 280.586 339.672C280.586 339.744 280.644 339.802 280.715 339.802Z" fill="#38A993"/>
<path d="M276.256 361.341C277.177 361.923 280.493 362.351 280.493 362.351L281.361 362.366C281.361 362.366 283.529 361.847 283.842 361.742C284.153 361.638 284.9 361.971 285.243 361.742C285.586 361.514 287.234 360.02 287.345 359.583C287.457 359.146 286.788 357.565 286.769 357.255C286.75 356.944 287.206 355.053 287.249 354.429C287.291 353.806 285.441 350.714 285.274 350.213C285.107 349.712 285.81 347.883 285.81 347.883C285.81 347.883 284.281 349.484 284.331 349.858C284.38 350.232 285.077 351.104 285.113 351.375C285.149 351.644 284.167 353.577 284.201 353.846C284.236 354.116 284.678 355.01 284.634 355.405C284.634 355.405 284.408 354.491 283.937 354.2C283.467 353.909 282.99 353.681 282.782 353.495C282.575 353.307 282.02 351.728 282.068 351.541C282.116 351.354 282.553 350.859 282.49 350.213C282.428 349.566 281.047 347.344 281.047 347.344C281.047 347.344 281.288 348.57 281.047 348.861C280.807 349.15 279.934 349.608 279.851 349.837C279.769 350.066 280.641 351.064 280.537 351.313C280.433 351.562 278.468 351.957 278.266 352.228C278.063 352.497 277.524 354.555 277.67 354.95C277.815 355.345 278.293 356.841 278.023 357.132C277.753 357.424 277.17 357.549 277.15 357.424C277.13 357.299 277.505 356.364 277.358 355.783C277.213 355.201 276.589 353.933 276.548 353.621C276.505 353.309 276.928 351.738 277.101 351.369C277.274 351.002 275.897 353.309 275.82 353.919C275.744 354.527 276.215 356.502 276.159 356.544C276.104 356.585 275.878 356.35 275.811 356.225C275.744 356.1 275.811 355.083 275.811 355.083C275.811 355.083 275.023 356.003 274.932 356.404C274.842 356.807 275.299 357.791 275.231 358.123C275.161 358.455 274.809 359.224 274.767 359.667C274.725 360.107 275.925 361.13 276.256 361.341ZM285.662 358.368C285.63 358.772 285.192 359.657 285.15 359.692C285.15 359.692 285.248 359.041 285.254 358.785C285.262 358.528 285.11 358.299 284.964 357.788C284.818 357.276 285.289 356.617 285.289 356.617C285.289 356.617 285.704 357.842 285.662 358.368ZM283.827 361.41C283.827 361.41 284.36 360.954 284.623 360.712C284.887 360.469 285.669 360.123 285.81 359.886C285.951 359.652 286.175 358.522 286.175 358.522C286.175 358.522 286.374 359.665 286.279 360.033C286.182 360.399 285.282 361.21 284.99 361.363C284.7 361.514 283.827 361.41 283.827 361.41ZM278.027 357.957C277.998 358.012 277.592 358.765 277.572 359.144C277.552 359.539 277.78 360.032 277.946 360.288C278.113 360.544 278.293 361.208 278.293 361.208C278.293 361.208 277.372 360.779 277.213 360.1C277.057 359.443 277.975 358.037 278.027 357.957Z" fill="#38A993"/>
<path d="M284.259 348.275C284.259 348.275 285.213 347.596 285.241 347.083C285.27 346.57 284.645 345.504 284.708 345.089C284.771 344.673 284.982 344.285 284.982 344.285C284.982 344.285 283.972 344.978 283.977 345.546C283.981 346.113 284.577 347.014 284.521 347.291C284.466 347.568 284.259 348.275 284.259 348.275Z" fill="#38A993"/>
<path d="M278.562 351.394C278.562 351.394 278.783 350.719 278.753 350.452C278.721 350.186 278.403 349.832 278.403 349.832C278.403 349.832 278.15 350.098 278.275 350.531C278.4 350.964 278.562 351.394 278.562 351.394Z" fill="#38A993"/>
<path d="M276.203 351.28C276.26 351.217 276.675 350.488 276.749 349.832C276.821 349.175 276.474 348.349 276.354 348.136C276.235 347.924 275.73 347.638 275.73 347.638C275.73 347.638 276.074 348.178 276.083 348.422C276.093 348.667 275.912 349.425 275.886 349.721C275.86 350.018 276.203 351.28 276.203 351.28Z" fill="#38A993"/>
<path d="M282.394 347.341C282.394 347.341 283.11 346.365 282.976 345.731C282.841 345.098 282.285 344.271 282.071 344.059C281.858 343.845 281.334 343.342 281.116 342.999C280.898 342.656 280.887 341.41 281.116 341.097C281.344 340.786 281.739 340.595 281.739 340.595C281.739 340.595 280.763 340.547 280.139 341.419C279.515 342.292 278.715 345.68 279.09 346.448C279.464 347.217 280.514 347.976 280.514 347.976C280.514 347.976 280.233 346.635 280.327 346.303C280.42 345.971 281.417 346.302 281.667 346.505C281.916 346.708 282.394 347.341 282.394 347.341Z" fill="#38A993"/>
<path d="M284.045 352.132C284.045 352.132 284.485 351.674 284.391 351.28C284.298 350.885 283.737 350.292 283.705 350.106C283.674 349.919 283.834 349.159 283.834 349.159C283.834 349.159 283.268 350.231 283.393 350.563C283.518 350.895 283.632 351.394 283.632 351.394C283.632 351.394 283.382 351.227 283.33 351.093C283.278 350.958 283.226 350.729 283.226 350.729C283.226 350.729 282.8 351.259 282.935 351.633C283.069 352.007 283.807 352.723 283.807 352.723C283.807 352.723 283.786 352.505 283.796 352.38C283.81 352.255 283.889 352.328 284.045 352.132Z" fill="#38A993"/>
<g opacity="0.4">
<path d="M280.996 362.352C280.996 362.352 283.594 361.417 284.173 360.088C284.537 359.254 283.557 357.549 283.473 357.278C283.39 357.008 283.499 355.969 283.362 355.553C283.225 355.138 281.386 354.047 281.224 353.761C281.063 353.475 281.546 352.332 281.546 352.332C281.546 352.332 280.148 353.462 279.941 354.102C279.734 354.742 280.564 355.988 280.554 356.217C280.544 356.446 280.066 357.123 280.066 357.123C280.066 357.123 279.697 356.654 279.683 356.217C279.67 355.781 279.885 355.555 279.84 355.253C279.795 354.95 279.232 354.368 279.232 354.368C279.232 354.368 279.525 354.89 279.379 355.253C279.233 355.616 278.526 356.321 278.63 356.883C278.734 357.444 279.565 358.733 279.493 359.086C279.42 359.439 279.232 359.691 279.232 359.691C279.232 359.691 279.005 359.165 278.933 358.813C278.86 358.461 278.784 357.994 278.784 357.994C278.784 357.994 278.357 360.3 278.796 360.95C279.234 361.6 280.996 362.352 280.996 362.352Z" fill="white"/>
<path d="M281.688 346.28C281.709 346.238 281.988 345.61 281.999 345.267C282.009 344.924 281.387 344.467 281.106 344.207C280.826 343.948 280.223 343.106 280.275 342.67C280.327 342.234 280.392 341.9 280.392 341.9C280.392 341.9 279.527 344.373 279.578 345.152C279.63 345.931 280.088 346.43 280.088 346.43C280.088 346.43 280.254 345.679 280.617 345.702C281.105 345.735 281.688 346.28 281.688 346.28Z" fill="white"/>
<path d="M284.484 347.934C284.484 347.934 285.039 347.415 285.032 347.068C285.025 346.722 284.484 345.76 284.484 345.76C284.484 345.76 284.717 346.889 284.758 347.11C284.8 347.331 284.484 347.934 284.484 347.934Z" fill="white"/>
<path d="M278.069 361.537C278.069 361.537 276.941 360.835 276.736 360.65C276.531 360.466 276.219 359.473 276.24 359.276C276.26 359.079 276.624 358.199 276.624 357.955C276.624 357.713 275.887 356.851 275.887 356.851C275.887 356.851 276.126 357.668 276.084 357.868C276.042 358.066 275.081 359.209 275.141 359.636C275.202 360.062 276.116 360.832 276.379 361.004C276.642 361.178 278.069 361.537 278.069 361.537Z" fill="white"/>
<path d="M286.022 356.994C286.022 356.994 286.771 355.054 286.702 354.543C286.633 354.03 285.764 352.091 285.764 352.091C285.764 352.091 285.826 353.745 285.897 354.006C285.969 354.265 285.764 355.056 285.764 355.056C285.764 355.056 285.496 354.488 285.448 354.28C285.4 354.071 285.597 353.268 285.597 353.268C285.597 353.268 285.055 354.704 285.179 355.254C285.303 355.803 286.022 356.994 286.022 356.994Z" fill="white"/>
</g>
</g>
<defs>
<clipPath id="clip0_903_32062">
<rect width="548" height="421.759" fill="white"/>
</clipPath>
</defs>
</svg>
