<svg width="116" height="24" viewBox="0 0 116 24" fill="none" xmlns="http://www.w3.org/2000/svg">
<circle cx="12.2388" cy="12.1504" r="11.1724" fill="#38A993"/>
<path d="M16.706 15.3427L15.4246 12.0318L15.1355 11.2982C15.0971 11.1793 15.1334 11.0068 15.2231 10.9188L16.7486 9.42266C17.2272 8.95328 17.4483 8.04193 17.2472 7.39807C17.1753 7.17517 16.9993 6.9957 16.7778 6.91949C16.1428 6.71088 15.2224 6.91921 14.7438 7.3886L13.2183 8.88477C13.1286 8.97277 12.9555 9.00566 12.8374 8.96501L8.829 7.32135C8.39135 7.13441 7.74816 7.26643 7.40916 7.59891L6.75111 8.24431C6.32737 8.65991 6.43092 9.18432 6.98668 9.41191L10.5131 10.8534C10.7885 10.9647 10.8403 11.2269 10.6259 11.4371L10.0726 11.9799L9.17524 12.86C9.06058 12.9724 8.8325 13.069 8.67451 13.0674L6.37861 13.0501C6.14161 13.0478 5.85352 13.2228 5.73781 13.4438L5.27985 14.3331C5.07373 14.7114 5.26173 15.1823 5.67024 15.3196L7.83097 15.5281C8.16153 15.556 8.45 15.8502 8.47148 16.1812L8.63812 18.3456C8.77244 18.7518 9.23464 18.9538 9.62655 18.765L10.5246 18.3244C10.7429 18.2179 10.9284 17.9283 10.9307 17.6913L10.9579 15.3955C10.9545 15.2326 11.0555 15.0064 11.1701 14.8939L12.6208 13.4711C12.8352 13.2609 13.0865 13.3176 13.2023 13.5953L14.5751 17.149C14.7918 17.709 15.3141 17.8227 15.7379 17.4071L16.3959 16.7617C16.7349 16.4293 16.8794 15.7887 16.706 15.3427Z" fill="white"/>
<path d="M33.9374 17.6788C33.2422 17.6788 32.5967 17.5497 32.0008 17.2914C31.405 17.0233 30.8985 16.6608 30.4814 16.204C30.0643 15.7472 29.7564 15.2208 29.5578 14.625L31.0474 13.9993C31.3156 14.6846 31.7079 15.2109 32.2243 15.5783C32.7407 15.9458 33.3366 16.1295 34.0119 16.1295C34.4091 16.1295 34.7567 16.0699 35.0546 15.9508C35.3526 15.8217 35.581 15.6429 35.7399 15.4145C35.9087 15.1861 35.9931 14.9229 35.9931 14.625C35.9931 14.2178 35.8789 13.895 35.6505 13.6567C35.4221 13.4183 35.0844 13.2297 34.6375 13.0906L32.552 12.4352C31.7178 12.177 31.0822 11.7847 30.6452 11.2583C30.2083 10.7221 29.9898 10.0964 29.9898 9.38138C29.9898 8.75572 30.1437 8.20952 30.4516 7.74276C30.7594 7.26607 31.1815 6.89365 31.7178 6.62552C32.264 6.35738 32.8847 6.22331 33.5799 6.22331C34.2452 6.22331 34.851 6.34248 35.3972 6.58083C35.9434 6.80924 36.4102 7.12703 36.7975 7.53421C37.1948 7.94138 37.4828 8.4131 37.6615 8.94938L36.2017 9.58993C35.9832 9.004 35.6406 8.55214 35.1738 8.23434C34.717 7.91655 34.1857 7.75765 33.5799 7.75765C33.2124 7.75765 32.8897 7.82221 32.6116 7.95131C32.3335 8.07048 32.115 8.24924 31.9561 8.48759C31.8072 8.716 31.7327 8.98414 31.7327 9.292C31.7327 9.64952 31.8469 9.96731 32.0753 10.2454C32.3037 10.5234 32.6513 10.732 33.1181 10.871L35.0546 11.4818C35.9385 11.7499 36.6039 12.1372 37.0508 12.6437C37.4977 13.1403 37.7211 13.761 37.7211 14.5058C37.7211 15.1215 37.5572 15.6677 37.2295 16.1444C36.9117 16.6211 36.4698 16.9985 35.9037 17.2766C35.3377 17.5447 34.6822 17.6788 33.9374 17.6788ZM39.5305 17.5V6.22331H41.2138V13.7759L40.5583 13.612L44.5953 9.44097H46.6957L43.6568 12.6735L46.8298 17.5H44.8932L42.0629 13.2247L43.0609 13.0906L40.6775 15.623L41.2138 14.5058V17.5H39.5305ZM48.6975 20.7921C48.4989 20.7921 48.3003 20.7723 48.1017 20.7326C47.913 20.7028 47.7392 20.6531 47.5803 20.5836V19.1386C47.6995 19.1684 47.8435 19.1932 48.0123 19.2131C48.1811 19.2429 48.345 19.2578 48.5039 19.2578C48.9706 19.2578 49.3133 19.1535 49.5317 18.945C49.7602 18.7463 49.9637 18.4335 50.1425 18.0065L50.6788 16.785L50.649 18.2001L47.1632 9.44097H48.9657L51.5428 16.1593H50.932L53.4942 9.44097H55.3116L51.7513 18.3789C51.5626 18.8556 51.3243 19.2727 51.0363 19.6302C50.7582 19.9977 50.4255 20.2807 50.0382 20.4793C49.6608 20.6879 49.2139 20.7921 48.6975 20.7921ZM56.6275 17.5V6.40207H63.9417V7.96621H58.3853V11.1541H63.6438V12.7182H58.3853V15.9359H63.9417V17.5H56.6275ZM64.6059 17.5L67.4213 13.463L64.6059 9.44097H66.5871L68.8961 12.8076H67.9427L70.2517 9.44097H72.2329L69.4026 13.463L72.218 17.5H70.2368L67.9576 14.1185H68.8812L66.5871 17.5H64.6059ZM73.3823 20.4793V9.44097H74.9911V11.1094L74.7975 10.7221C75.0954 10.2652 75.4926 9.90772 75.9892 9.64952C76.4857 9.39131 77.0518 9.26221 77.6874 9.26221C78.4521 9.26221 79.1373 9.44593 79.7431 9.81338C80.3588 10.1808 80.8405 10.6823 81.1881 11.3179C81.5456 11.9535 81.7244 12.6686 81.7244 13.463C81.7244 14.2575 81.5456 14.9726 81.1881 15.6081C80.8405 16.2437 80.3638 16.7502 79.758 17.1276C79.1522 17.495 78.462 17.6788 77.6874 17.6788C77.0617 17.6788 76.4907 17.5497 75.9743 17.2914C75.4678 17.0332 75.0755 16.6608 74.7975 16.1742L75.0656 15.8614V20.4793H73.3823ZM77.5235 16.1146C78.0002 16.1146 78.4223 16.0004 78.7897 15.772C79.1572 15.5436 79.4452 15.2308 79.6537 14.8335C79.8722 14.4263 79.9815 13.9695 79.9815 13.463C79.9815 12.9566 79.8722 12.5047 79.6537 12.1074C79.4452 11.7102 79.1572 11.3974 78.7897 11.169C78.4223 10.9406 78.0002 10.8263 77.5235 10.8263C77.0568 10.8263 76.6347 10.9406 76.2573 11.169C75.8899 11.3974 75.5969 11.7102 75.3784 12.1074C75.1699 12.5047 75.0656 12.9566 75.0656 13.463C75.0656 13.9695 75.1699 14.4263 75.3784 14.8335C75.5969 15.2308 75.8899 15.5436 76.2573 15.772C76.6347 16.0004 77.0568 16.1146 77.5235 16.1146ZM83.3618 17.5V6.22331H85.0451V17.5H83.3618ZM90.9012 17.6788C90.1266 17.6788 89.4165 17.495 88.771 17.1276C88.1354 16.7601 87.6289 16.2586 87.2516 15.623C86.8742 14.9874 86.6855 14.2674 86.6855 13.463C86.6855 12.6487 86.8742 11.9287 87.2516 11.303C87.6289 10.6674 88.1354 10.1709 88.771 9.81338C89.4066 9.44593 90.1167 9.26221 90.9012 9.26221C91.6957 9.26221 92.4058 9.44593 93.0314 9.81338C93.667 10.1709 94.1685 10.6674 94.536 11.303C94.9134 11.9287 95.102 12.6487 95.102 13.463C95.102 14.2774 94.9134 15.0023 94.536 15.6379C94.1586 16.2735 93.6521 16.775 93.0165 17.1425C92.3809 17.5 91.6758 17.6788 90.9012 17.6788ZM90.9012 16.1146C91.3779 16.1146 91.8 16.0004 92.1674 15.772C92.5349 15.5436 92.8229 15.2308 93.0314 14.8335C93.2499 14.4263 93.3591 13.9695 93.3591 13.463C93.3591 12.9566 93.2499 12.5047 93.0314 12.1074C92.8229 11.7102 92.5349 11.3974 92.1674 11.169C91.8 10.9406 91.3779 10.8263 90.9012 10.8263C90.4345 10.8263 90.0124 10.9406 89.635 11.169C89.2676 11.3974 88.9746 11.7102 88.7561 12.1074C88.5476 12.5047 88.4433 12.9566 88.4433 13.463C88.4433 13.9695 88.5476 14.4263 88.7561 14.8335C88.9746 15.2308 89.2676 15.5436 89.635 15.772C90.0124 16.0004 90.4345 16.1146 90.9012 16.1146ZM96.7454 17.5V9.44097H98.3543V11.0647L98.2053 10.8263C98.3841 10.3 98.6721 9.92262 99.0693 9.69421C99.4665 9.45586 99.9432 9.33669 100.499 9.33669H100.991V10.871H100.291C99.7347 10.871 99.2828 11.0448 98.9352 11.3924C98.5976 11.7301 98.4287 12.2167 98.4287 12.8523V17.5H96.7454ZM105.926 17.6788C105.122 17.6788 104.407 17.495 103.781 17.1276C103.165 16.7502 102.684 16.2437 102.336 15.6081C101.989 14.9626 101.815 14.2426 101.815 13.4481C101.815 12.6338 101.989 11.9138 102.336 11.2881C102.694 10.6625 103.17 10.1709 103.766 9.81338C104.362 9.44593 105.037 9.26221 105.792 9.26221C106.398 9.26221 106.939 9.36648 107.416 9.57503C107.893 9.78359 108.295 10.0716 108.623 10.439C108.95 10.7966 109.199 11.2087 109.367 11.6754C109.546 12.1422 109.635 12.6388 109.635 13.1651C109.635 13.2942 109.631 13.4283 109.621 13.5673C109.611 13.7063 109.591 13.8354 109.561 13.9546H103.141V12.6139H108.608L107.803 13.2247C107.903 12.7381 107.868 12.3061 107.699 11.9287C107.54 11.5414 107.292 11.2385 106.954 11.02C106.626 10.7916 106.239 10.6774 105.792 10.6774C105.345 10.6774 104.948 10.7916 104.6 11.02C104.253 11.2385 103.985 11.5563 103.796 11.9734C103.607 12.3806 103.533 12.8771 103.573 13.463C103.523 14.0092 103.597 14.4859 103.796 14.8931C104.005 15.3003 104.293 15.6181 104.66 15.8465C105.037 16.0749 105.464 16.1891 105.941 16.1891C106.428 16.1891 106.84 16.0799 107.178 15.8614C107.525 15.6429 107.798 15.3599 107.997 15.0123L109.367 15.6826C109.208 16.06 108.96 16.4026 108.623 16.7105C108.295 17.0084 107.898 17.2468 107.431 17.4255C106.974 17.5943 106.472 17.6788 105.926 17.6788ZM111.278 17.5V9.44097H112.887V11.0647L112.738 10.8263C112.917 10.3 113.205 9.92262 113.602 9.69421C113.999 9.45586 114.476 9.33669 115.032 9.33669H115.524V10.871H114.824C114.268 10.871 113.816 11.0448 113.468 11.3924C113.13 11.7301 112.962 12.2167 112.962 12.8523V17.5H111.278Z" fill="#111111"/>
</svg>
