<svg width="573" height="386" viewBox="0 0 573 386" fill="none" xmlns="http://www.w3.org/2000/svg">
<path d="M245.191 308.241L244.135 314.748L243.009 321.74L232.672 385.501H215.777L226.103 321.74L227.24 314.748L228.296 308.241H245.191Z" fill="#EBEBEB"/>
<path d="M242.746 308.241C241.85 314.702 240.897 321.151 239.932 327.588L236.946 346.923L233.822 366.223L232.214 375.862L230.537 385.501L231.915 375.816L233.351 366.143L236.372 346.819L239.496 327.519C240.518 321.081 241.598 314.655 242.746 308.241Z" fill="#C7C7C7"/>
<path d="M244.134 314.748L243.008 321.74H226.102L227.239 314.748H244.134Z" fill="#C7C7C7"/>
<path d="M328.621 308.241L329.678 314.748L330.803 321.74L341.14 385.501H358.035L347.71 321.74L346.573 314.748L345.516 308.241H328.621Z" fill="#EBEBEB"/>
<path d="M331.125 308.241C332.009 314.702 332.974 321.151 333.939 327.588L336.914 346.923L340.038 366.223L341.657 375.862L343.334 385.501L341.956 375.816L340.52 366.143L337.534 346.819L334.41 327.519C333.342 321.081 332.262 314.655 331.125 308.241Z" fill="#C7C7C7"/>
<path d="M329.678 314.748H346.573L347.71 321.74H330.803L329.678 314.748Z" fill="#C7C7C7"/>
<path d="M244.57 290.306H231.178L232.843 277.731H242.904L244.57 290.306Z" fill="#C7C7C7"/>
<path d="M250.177 270.955C251.376 264.122 246.843 257.606 240.053 256.4C233.263 255.194 226.787 259.755 225.588 266.588C224.39 273.42 228.922 279.937 235.713 281.143C242.503 282.349 248.979 277.787 250.177 270.955Z" fill="#DBDBDB"/>
<path d="M247.118 270.958C248.328 265.821 245.17 260.671 240.066 259.454C234.961 258.237 229.843 261.414 228.633 266.55C227.424 271.687 230.581 276.837 235.686 278.054C240.79 279.271 245.909 276.094 247.118 270.958Z" fill="white"/>
<path d="M245.811 268.193C245.723 267.054 245.402 265.946 244.869 264.938C244.335 263.93 243.6 263.043 242.71 262.334C241.814 261.634 240.786 261.124 239.688 260.836C238.591 260.548 237.446 260.487 236.325 260.658C235.211 260.835 234.147 261.245 233.201 261.862C232.255 262.479 231.449 263.29 230.835 264.241C230.186 265.258 229.761 266.403 229.589 267.599C229.417 268.795 229.501 270.014 229.835 271.175C230.406 273.18 231.739 274.879 233.545 275.902C235.307 276.909 237.375 277.23 239.357 276.803C241.273 276.391 242.992 275.331 244.226 273.799C245.446 272.285 246.15 270.417 246.236 268.471C246.236 268.39 246.236 268.309 246.156 268.309C246.076 268.309 246.076 268.378 246.076 268.471C246.032 269.258 245.881 270.036 245.628 270.782C245.363 271.515 245.012 272.213 244.583 272.862C244.13 273.492 243.605 274.066 243.021 274.573C242.419 275.078 241.76 275.509 241.057 275.856C240.045 276.335 238.946 276.597 237.829 276.625C236.712 276.653 235.601 276.446 234.567 276.018C233.531 275.576 232.602 274.913 231.844 274.075C231.087 273.237 230.519 272.244 230.18 271.164C229.831 270.054 229.725 268.882 229.867 267.727C230.01 266.572 230.399 265.462 231.007 264.472C231.594 263.533 232.375 262.731 233.296 262.121C234.217 261.511 235.258 261.107 236.348 260.935C237.82 260.7 239.328 260.869 240.712 261.424C242.097 261.98 243.307 262.901 244.215 264.091C244.652 264.704 245.007 265.372 245.272 266.078C245.528 266.795 245.697 267.54 245.777 268.297C245.777 268.297 245.811 268.228 245.811 268.193Z" fill="#EBEBEB"/>
<path d="M244.697 268.206C244.615 267.231 244.334 266.283 243.872 265.422C243.409 264.561 242.776 263.805 242.01 263.202C241.242 262.608 240.364 262.173 239.427 261.923C238.491 261.673 237.514 261.613 236.554 261.745C235.595 261.889 234.676 262.236 233.859 262.761C233.041 263.287 232.343 263.981 231.811 264.797C231.244 265.667 230.869 266.65 230.711 267.678C230.552 268.707 230.614 269.758 230.892 270.76C231.129 271.628 231.536 272.44 232.088 273.148C232.64 273.857 233.327 274.447 234.108 274.886C235.642 275.769 237.449 276.041 239.173 275.649C240.836 275.288 242.325 274.361 243.388 273.025C244.441 271.71 245.049 270.09 245.122 268.402C245.122 268.333 245.122 268.264 245.053 268.264C244.984 268.264 244.962 268.321 244.962 268.402C244.868 269.757 244.416 271.061 243.652 272.181C242.889 273.301 241.842 274.195 240.62 274.77C239.751 275.196 238.801 275.431 237.835 275.459C236.869 275.486 235.907 275.307 235.015 274.932C234.118 274.55 233.314 273.976 232.659 273.249C232.005 272.523 231.515 271.662 231.225 270.725C230.927 269.765 230.84 268.75 230.971 267.752C231.102 266.754 231.447 265.797 231.983 264.947C232.489 264.145 233.162 263.463 233.955 262.948C234.748 262.434 235.643 262.098 236.577 261.965C237.827 261.778 239.105 261.928 240.279 262.399C241.453 262.87 242.482 263.645 243.262 264.646C243.637 265.168 243.945 265.735 244.181 266.334C244.396 266.948 244.546 267.583 244.628 268.229L244.697 268.206Z" fill="#EBEBEB"/>
<path d="M243.583 268.218C243.5 267.406 243.254 266.619 242.859 265.906C242.464 265.192 241.929 264.568 241.286 264.069C239.995 263.081 238.37 262.641 236.761 262.844C235.955 262.951 235.181 263.229 234.49 263.66C233.799 264.09 233.207 264.663 232.752 265.341C232.261 266.073 231.931 266.903 231.787 267.774C231.642 268.645 231.685 269.538 231.914 270.391C232.107 271.135 232.448 271.832 232.916 272.439C233.383 273.047 233.968 273.553 234.636 273.928C235.952 274.668 237.495 274.891 238.966 274.552C240.383 274.22 241.642 273.403 242.526 272.24C243.401 271.124 243.915 269.765 243.996 268.346C243.996 268.276 243.996 268.218 243.916 268.218C243.902 268.22 243.889 268.224 243.877 268.231C243.865 268.237 243.855 268.246 243.846 268.257C243.838 268.268 243.831 268.28 243.827 268.293C243.824 268.306 243.823 268.32 243.824 268.334C243.735 269.471 243.351 270.565 242.71 271.506C242.069 272.447 241.194 273.202 240.172 273.696C239.44 274.06 238.639 274.263 237.823 274.291C237.007 274.319 236.195 274.171 235.44 273.858C234.677 273.541 233.994 273.057 233.44 272.441C232.885 271.826 232.474 271.094 232.235 270.299C231.998 269.489 231.936 268.637 232.055 267.802C232.174 266.966 232.47 266.166 232.925 265.456C233.358 264.795 233.928 264.236 234.596 263.817C235.264 263.398 236.014 263.13 236.795 263.029C237.827 262.907 238.874 263.029 239.85 263.387C240.834 263.763 241.696 264.402 242.343 265.237C242.662 265.662 242.925 266.129 243.124 266.623C243.317 267.13 243.451 267.658 243.525 268.195C243.525 268.195 243.594 268.23 243.583 268.218Z" fill="#EBEBEB"/>
<path d="M242.477 268.229C242.308 266.926 241.636 265.742 240.605 264.935C239.574 264.159 238.29 263.804 237.01 263.941C236.359 264.017 235.731 264.231 235.167 264.567C234.603 264.904 234.116 265.356 233.737 265.894C233.325 266.488 233.045 267.163 232.914 267.875C232.783 268.586 232.805 269.318 232.979 270.02C233.131 270.638 233.409 271.218 233.794 271.723C234.179 272.228 234.664 272.648 235.218 272.956C236.31 273.564 237.588 273.741 238.802 273.452C239.956 273.171 240.981 272.503 241.708 271.557C242.399 270.633 242.799 269.522 242.856 268.367C242.858 268.355 242.857 268.343 242.854 268.331C242.851 268.319 242.845 268.308 242.838 268.298C242.83 268.289 242.821 268.281 242.81 268.275C242.8 268.269 242.788 268.265 242.776 268.263C242.776 268.263 242.695 268.263 242.684 268.356C242.615 269.271 242.315 270.154 241.813 270.921C241.31 271.687 240.622 272.312 239.813 272.736C239.221 273.047 238.57 273.225 237.903 273.256C237.237 273.288 236.572 273.174 235.954 272.921C235.327 272.661 234.767 272.262 234.316 271.754C233.864 271.245 233.533 270.641 233.346 269.985C233.162 269.328 233.123 268.638 233.23 267.964C233.337 267.289 233.588 266.646 233.967 266.079C234.322 265.557 234.785 265.119 235.324 264.794C235.863 264.468 236.466 264.264 237.091 264.195C237.908 264.121 238.731 264.227 239.502 264.507C240.278 264.796 240.964 265.286 241.489 265.929C241.742 266.269 241.954 266.637 242.121 267.027C242.284 267.433 242.404 267.855 242.477 268.286V268.229Z" fill="#EBEBEB"/>
<path d="M342.347 290.306H328.943L330.609 277.731H340.681L342.347 290.306Z" fill="#C7C7C7"/>
<path d="M348.196 269.854C349.23 262.985 344.535 256.574 337.709 255.533C330.883 254.492 324.51 259.217 323.476 266.085C322.442 272.954 327.137 279.366 333.963 280.407C340.789 281.448 347.161 276.723 348.196 269.854Z" fill="#DBDBDB"/>
<path d="M345.026 270.189C345.817 264.971 342.254 260.095 337.068 259.3C331.882 258.504 327.037 262.089 326.246 267.307C325.455 272.526 329.018 277.401 334.204 278.197C339.39 278.992 344.235 275.407 345.026 270.189Z" fill="white"/>
<path d="M343.586 268.196C343.496 267.057 343.174 265.95 342.641 264.942C342.107 263.934 341.373 263.047 340.485 262.336C339.589 261.637 338.561 261.128 337.463 260.839C336.365 260.551 335.221 260.49 334.099 260.66C332.986 260.837 331.921 261.247 330.976 261.864C330.03 262.482 329.224 263.292 328.609 264.243C327.956 265.258 327.528 266.403 327.356 267.6C327.183 268.797 327.27 270.017 327.61 271.177C328.176 273.185 329.51 274.885 331.32 275.904C333.081 276.912 335.15 277.233 337.131 276.806C339.048 276.393 340.767 275.333 342.001 273.801C343.22 272.287 343.925 270.42 344.011 268.473C344.011 268.392 344.011 268.311 343.931 268.311C343.85 268.311 343.85 268.381 343.839 268.473C343.793 269.259 343.647 270.036 343.402 270.784C343.139 271.52 342.784 272.219 342.346 272.865C341.447 274.153 340.233 275.184 338.82 275.858C337.812 276.341 336.714 276.604 335.598 276.632C334.482 276.66 333.373 276.451 332.342 276.02C331.304 275.579 330.373 274.916 329.613 274.078C328.854 273.24 328.284 272.247 327.943 271.166C327.596 270.055 327.492 268.883 327.636 267.728C327.781 266.573 328.172 265.463 328.781 264.474C329.369 263.535 330.15 262.733 331.071 262.123C331.992 261.513 333.033 261.109 334.122 260.938C335.594 260.702 337.102 260.871 338.487 261.427C339.872 261.982 341.082 262.903 341.99 264.093C342.422 264.709 342.777 265.377 343.046 266.081C343.299 266.798 343.464 267.543 343.54 268.3C343.54 268.3 343.586 268.23 343.586 268.196Z" fill="#EBEBEB"/>
<path d="M342.473 268.206C342.385 267.232 342.102 266.286 341.64 265.426C341.178 264.566 340.547 263.809 339.785 263.202C339.017 262.608 338.139 262.173 337.202 261.923C336.266 261.673 335.289 261.613 334.329 261.745C333.368 261.888 332.447 262.233 331.628 262.759C330.808 263.285 330.108 263.979 329.574 264.797C329.008 265.667 328.633 266.65 328.474 267.678C328.316 268.707 328.378 269.758 328.656 270.76C328.893 271.628 329.299 272.44 329.851 273.148C330.404 273.857 331.09 274.447 331.872 274.886C333.406 275.767 335.213 276.039 336.937 275.649C338.604 275.29 340.097 274.364 341.163 273.025C342.212 271.707 342.819 270.089 342.897 268.402C342.897 268.333 342.897 268.264 342.817 268.264C342.737 268.264 342.737 268.321 342.725 268.402C342.634 269.756 342.184 271.06 341.422 272.18C340.661 273.3 339.616 274.194 338.395 274.77C337.526 275.196 336.577 275.431 335.61 275.459C334.644 275.486 333.683 275.307 332.79 274.932C331.89 274.552 331.084 273.979 330.427 273.252C329.77 272.525 329.279 271.663 328.989 270.725C328.695 269.764 328.61 268.75 328.741 267.753C328.872 266.756 329.215 265.798 329.747 264.947C330.255 264.147 330.928 263.467 331.721 262.952C332.514 262.438 333.407 262.101 334.341 261.965C335.595 261.773 336.877 261.919 338.056 262.391C339.235 262.862 340.268 263.64 341.048 264.646C341.428 265.165 341.737 265.733 341.967 266.334C342.193 266.945 342.343 267.581 342.415 268.229C342.426 268.229 342.436 268.227 342.446 268.223C342.456 268.219 342.465 268.213 342.473 268.206Z" fill="#EBEBEB"/>
<path d="M341.357 268.217C341.269 267.406 341.021 266.621 340.626 265.909C340.232 265.196 339.699 264.57 339.06 264.068C337.768 263.082 336.144 262.643 334.535 262.843C333.733 262.953 332.964 263.233 332.277 263.663C331.59 264.093 331.002 264.665 330.55 265.34C330.059 266.072 329.729 266.902 329.583 267.773C329.436 268.643 329.476 269.536 329.7 270.39C329.898 271.133 330.243 271.829 330.712 272.436C331.181 273.043 331.767 273.55 332.433 273.927C333.746 274.667 335.285 274.889 336.752 274.551C338.172 274.219 339.434 273.402 340.324 272.239C341.201 271.126 341.711 269.764 341.782 268.345C341.782 268.275 341.782 268.217 341.713 268.217C341.7 268.219 341.687 268.223 341.675 268.23C341.663 268.236 341.652 268.245 341.643 268.256C341.635 268.267 341.629 268.279 341.625 268.292C341.621 268.305 341.62 268.319 341.622 268.333C341.53 269.47 341.145 270.562 340.504 271.503C339.864 272.444 338.99 273.2 337.969 273.695C337.237 274.059 336.436 274.262 335.62 274.29C334.805 274.318 333.992 274.17 333.237 273.857C332.474 273.54 331.791 273.056 331.237 272.44C330.683 271.825 330.271 271.093 330.033 270.298C329.795 269.488 329.733 268.636 329.852 267.801C329.971 266.965 330.268 266.165 330.722 265.455C331.152 264.793 331.72 264.234 332.386 263.815C333.052 263.395 333.801 263.127 334.581 263.028C335.617 262.905 336.667 263.028 337.648 263.386C338.631 263.762 339.493 264.401 340.14 265.236C340.46 265.661 340.722 266.128 340.921 266.622C341.103 267.133 341.238 267.659 341.323 268.194C341.332 268.205 341.344 268.213 341.357 268.217Z" fill="#EBEBEB"/>
<path d="M340.245 268.228C340.166 267.583 339.961 266.96 339.641 266.395C339.322 265.829 338.895 265.333 338.384 264.934C337.353 264.159 336.069 263.805 334.789 263.941C334.137 264.012 333.507 264.223 332.942 264.56C332.378 264.897 331.891 265.352 331.516 265.894C331.105 266.487 330.824 267.162 330.693 267.874C330.563 268.586 330.585 269.317 330.758 270.02C330.91 270.638 331.188 271.218 331.573 271.723C331.959 272.228 332.444 272.647 332.998 272.955C334.085 273.562 335.359 273.74 336.57 273.452C337.726 273.168 338.754 272.501 339.487 271.557C340.178 270.633 340.578 269.522 340.636 268.367C340.639 268.355 340.64 268.343 340.638 268.332C340.636 268.32 340.632 268.308 340.625 268.299C340.619 268.289 340.61 268.28 340.6 268.274C340.59 268.268 340.578 268.264 340.567 268.263C340.542 268.263 340.519 268.273 340.502 268.29C340.484 268.307 340.475 268.331 340.475 268.355C340.391 269.276 340.073 270.159 339.552 270.92C339.032 271.681 338.325 272.294 337.5 272.701C336.91 273.01 336.261 273.187 335.596 273.219C334.932 273.251 334.269 273.137 333.652 272.886C333.026 272.626 332.466 272.227 332.014 271.719C331.563 271.21 331.232 270.606 331.045 269.95C330.861 269.293 330.821 268.603 330.929 267.928C331.036 267.254 331.287 266.611 331.665 266.044C332.02 265.522 332.483 265.083 333.022 264.757C333.562 264.432 334.164 264.228 334.789 264.16C335.603 264.086 336.422 264.192 337.19 264.472C337.967 264.757 338.654 265.248 339.177 265.894C339.437 266.23 339.653 266.599 339.82 266.992C339.983 267.398 340.103 267.82 340.176 268.251C340.176 268.251 340.256 268.24 340.245 268.228Z" fill="#EBEBEB"/>
<path d="M371.092 283.901H202.705V316.308H371.092V283.901Z" fill="#DBDBDB"/>
<path d="M237.323 283.901L225.103 316.308H203.35L215.57 283.901H237.323Z" fill="#EBEBEB"/>
<path d="M281.898 283.901L269.677 316.308H247.924L260.144 283.901H281.898Z" fill="#EBEBEB"/>
<path d="M326.462 283.901L314.253 316.308H292.5L304.72 283.901H326.462Z" fill="#EBEBEB"/>
<path d="M371.05 283.901L358.829 316.308H337.076L349.297 283.901H371.05Z" fill="#EBEBEB"/>
<path d="M367.693 346.274H206.117V366.788H367.693V346.274Z" fill="#DBDBDB"/>
<path d="M239.322 346.274L227.607 366.777H206.738L218.465 346.274H239.322Z" fill="#EBEBEB"/>
<path d="M282.105 346.274L270.378 366.777H249.498L261.225 346.274H282.105Z" fill="#EBEBEB"/>
<path d="M324.867 346.274L313.14 366.777H292.271L303.998 346.274H324.867Z" fill="#EBEBEB"/>
<path d="M367.635 346.274L355.908 366.777H335.039L346.766 346.274H367.635Z" fill="#EBEBEB"/>
<path d="M537.06 102.87H407.068C407.068 102.87 419.955 67.4473 439.79 67.4473C459.625 67.4473 465.839 91.8906 465.839 91.8906C465.839 91.8906 479.219 78.6115 490.222 78.6115C501.225 78.6115 510.77 96.1668 510.77 96.1668C510.77 96.1668 526.309 86.7246 537.06 102.87Z" fill="#EBEBEB"/>
<path d="M188.674 19.7858H127.928C127.928 19.7858 141.492 0 152.196 0C162.901 0 166.048 13.1867 166.048 13.1867C166.048 13.1867 173.594 7.0383 180.588 8.13623C187.583 9.23416 188.674 19.7858 188.674 19.7858Z" fill="#EBEBEB"/>
<path d="M516.363 162.274H455.617C455.617 162.274 469.193 142.488 479.886 142.488C490.579 142.488 493.737 155.675 493.737 155.675C493.737 155.675 501.283 149.515 508.278 150.625C515.272 151.734 516.363 162.274 516.363 162.274Z" fill="#EBEBEB"/>
<path d="M155.089 69.3762H36.7559C36.7559 69.3762 52.9617 32.9712 70.2931 30.6944C87.6245 28.4177 95.9169 57.7381 95.9169 57.7381C95.9169 57.7381 107.104 47.3367 115.89 47.3367C124.676 47.3367 131.464 60.9857 131.464 60.9857C131.464 60.9857 149.083 51.6706 155.089 69.3762Z" fill="#EBEBEB"/>
<path d="M572.998 362.35H535.488C508.23 362.35 491.559 349.612 488.562 326.487C487.081 315.084 486.174 301.283 485.221 286.674C482.282 241.783 478.252 180.327 452.406 180.327H422.703V175.67H452.406C484.831 175.67 488.528 232.002 492.098 286.479C493.051 301.042 493.958 314.797 495.428 326.068C497.3 340.491 505.762 357.685 535.488 357.685H572.998V362.35Z" fill="#38A993"/>
<path opacity="0.2" d="M444.898 175.333L443.428 182.267H423.076V175.333H444.898Z" fill="black"/>
<path d="M367.07 137.297H355.057V221.768H367.07V137.297Z" fill="#38A993"/>
<path d="M355.072 143.537H309.395V214.66H355.072V143.537Z" fill="#38A993"/>
<path opacity="0.2" d="M355.057 143.552V214.674H343.709L338.621 143.552H355.057Z" fill="black"/>
<path d="M274.34 156.31H309.382V166.943H274.34C273.14 166.943 271.989 166.463 271.14 165.609C270.291 164.755 269.814 163.597 269.814 162.389V160.875C269.813 160.277 269.929 159.683 270.156 159.129C270.382 158.576 270.715 158.072 271.136 157.648C271.556 157.224 272.056 156.888 272.605 156.658C273.155 156.429 273.744 156.31 274.34 156.31Z" fill="#DBDBDB"/>
<path d="M309.381 156.31H297.08V166.931H309.381V156.31Z" fill="#A6A6A6"/>
<path d="M274.34 191.27H309.382V201.903H274.34C273.14 201.903 271.989 201.423 271.14 200.569C270.291 199.715 269.814 198.557 269.814 197.349V195.835C269.813 195.237 269.929 194.643 270.156 194.089C270.382 193.536 270.715 193.032 271.136 192.608C271.556 192.184 272.056 191.848 272.605 191.618C273.155 191.389 273.744 191.27 274.34 191.27Z" fill="#DBDBDB"/>
<path d="M309.381 191.27H297.08V201.891H309.381V191.27Z" fill="#A6A6A6"/>
<path d="M438.062 172.315H402.377V186.496H438.062V172.315Z" fill="#38A993"/>
<path d="M438.062 172.327H402.377V186.508H438.062V172.327Z" fill="#38A993"/>
<path opacity="0.2" d="M414.907 172.327L413.736 186.508H402.377V172.327H414.907Z" fill="black"/>
<path d="M367.072 146.218H395.315C397.188 146.218 398.985 146.966 400.309 148.299C401.634 149.632 402.378 151.44 402.378 153.325V204.882C402.378 206.767 401.634 208.575 400.309 209.908C398.985 211.241 397.188 211.989 395.315 211.989H367.072V146.218Z" fill="#38A993"/>
<path opacity="0.2" d="M382.095 146.218L377.007 211.989H367.084V146.218H382.095Z" fill="black"/>
<g opacity="0.2">
<path d="M379.466 159.51H377.215V198.688H379.466V159.51Z" fill="black"/>
<path d="M385.853 159.51H383.602V198.688H385.853V159.51Z" fill="black"/>
<path d="M392.237 159.51H389.986V198.688H392.237V159.51Z" fill="black"/>
</g>
<path d="M224.734 178.065C227.663 177.985 241.066 176.436 244.707 175.165C248.348 173.893 258.49 169.478 257.846 166.578C257.203 163.677 254.079 164.729 254.079 164.729C254.079 164.729 258.088 162.174 257.134 159.32C256.181 156.465 251.392 158.268 251.392 158.268C251.392 158.268 255.32 155.344 254.16 152.559C253 149.774 248.532 152.397 248.532 152.397C248.532 152.397 252.253 149.889 250.346 147.994C248.049 145.682 241.709 151.126 237.598 152.224C236.656 152.478 218.279 155.934 218.279 155.934L224.734 178.065Z" fill="#AD6359"/>
<path d="M249.003 152.178C244.329 156.131 241.607 157.056 235.657 157.876C235.637 157.883 235.619 157.896 235.607 157.914C235.595 157.932 235.588 157.953 235.588 157.974C235.588 157.996 235.595 158.017 235.607 158.035C235.619 158.052 235.637 158.065 235.657 158.073C241.549 157.795 245.133 157.136 249.199 152.398C249.371 152.167 249.187 151.993 249.003 152.178Z" fill="#263238"/>
<path d="M251.795 157.943C246.592 161.687 243.652 162.646 237.519 163.999C237.438 163.999 237.461 164.172 237.519 164.16C243.675 163.363 247.235 162.623 251.956 158.255C252.151 158.035 252.036 157.769 251.795 157.943Z" fill="#263238"/>
<path d="M253.757 164.786C248.462 167.987 245.281 169.247 239.125 169.767C239.094 169.767 239.065 169.779 239.043 169.801C239.022 169.822 239.01 169.852 239.01 169.883C239.01 169.913 239.022 169.943 239.043 169.964C239.065 169.986 239.094 169.998 239.125 169.998C244.492 170.323 249.772 168.514 253.826 164.959C254.136 164.716 254.09 164.589 253.757 164.786Z" fill="#263238"/>
<path d="M214.031 153.507C217.125 151.496 220.361 149.715 223.713 148.18C226.952 147.024 240.62 147.024 240.769 150.006C240.976 153.843 233.085 155.38 229.123 155.634C229.123 155.634 229.617 164.498 224.184 166.844C218.752 169.191 214.031 153.507 214.031 153.507Z" fill="#AD6359"/>
<path d="M240.494 151.076C238.197 154.705 232.948 154.693 229.124 155.225C229.066 155.228 229.009 155.246 228.96 155.276C228.911 155.307 228.87 155.349 228.841 155.4C228.813 155.451 228.797 155.508 228.796 155.566C228.796 155.624 228.809 155.682 228.836 155.734C228.836 159.467 227.688 164.713 224.415 166.921C224.311 166.99 224.415 167.14 224.495 167.083C228.297 165.187 229.836 160.148 229.617 156.023C233.545 155.549 238.806 155.329 240.528 151.088C240.54 151.065 240.505 151.053 240.494 151.076Z" fill="#263238"/>
<path d="M197.32 148.108C196.565 150.339 195.94 152.612 195.448 154.915C194.885 157.227 194.299 159.538 193.828 161.85C192.806 166.383 192.039 170.971 191.531 175.591C191.531 175.619 191.542 175.645 191.562 175.665C191.581 175.684 191.607 175.695 191.635 175.695C191.662 175.695 191.688 175.684 191.708 175.665C191.727 175.645 191.738 175.619 191.738 175.591C192.978 171.061 193.897 166.426 194.839 161.826C195.31 159.515 195.735 157.273 196.206 155.008C196.677 152.743 197.239 150.385 197.492 148.143C197.497 148.12 197.492 148.096 197.479 148.076C197.466 148.057 197.446 148.043 197.423 148.039C197.4 148.034 197.377 148.039 197.357 148.052C197.338 148.065 197.324 148.085 197.32 148.108Z" fill="#263238"/>
<path d="M37.5107 362.353H0V357.695H37.5107C67.2253 357.695 75.6988 340.501 77.5703 326.077C79.04 314.783 79.9355 301.027 80.8885 286.487C84.4593 232.008 88.1564 175.673 120.581 175.673H150.295V180.331H120.558C94.7239 180.331 90.7054 241.804 87.7546 286.681C86.7901 301.299 85.883 315.101 84.4134 326.504C81.4281 349.614 64.7682 362.353 37.5107 362.353Z" fill="#38A993"/>
<path opacity="0.2" d="M150.115 175.336V182.27H126.41L124.939 175.336H150.115Z" fill="black"/>
<path d="M253.23 223.6H265.887V134.633H253.23V223.6Z" fill="#38A993"/>
<path d="M253.232 138.85H205.131V218.455H253.232V138.85Z" fill="#38A993"/>
<path opacity="0.2" d="M253.23 138.85V218.455H241.286L235.922 138.85H253.23Z" fill="black"/>
<path d="M132.266 185.889H167.951V171.708H132.266V185.889Z" fill="#38A993"/>
<path d="M167.953 171.718H132.268V185.898H167.953V171.718Z" fill="#38A993"/>
<path opacity="0.2" d="M155.42 185.887L156.591 171.718H167.95V185.887H155.42Z" fill="black"/>
<path d="M205.131 213.741H175.016C173.143 213.741 171.346 212.992 170.022 211.659C168.697 210.326 167.953 208.519 167.953 206.634V151.575C167.953 149.69 168.697 147.882 170.022 146.549C171.346 145.217 173.143 144.468 175.016 144.468H205.131V213.741Z" fill="#38A993"/>
<path opacity="0.2" d="M189.303 213.742L194.666 144.48H205.13V213.742H189.303Z" fill="black"/>
<g opacity="0.2">
<path d="M192.07 199.731H194.447V158.472H192.07V199.731Z" fill="black"/>
<path d="M185.353 199.731H187.73V158.472H185.353V199.731Z" fill="black"/>
<path d="M178.623 199.731H181V158.472H178.623V199.731Z" fill="black"/>
</g>
<path d="M287.086 119.745C286.934 119.745 286.788 119.684 286.68 119.575C286.572 119.467 286.512 119.32 286.512 119.167V102.906C286.512 102.753 286.572 102.606 286.68 102.497C286.788 102.389 286.934 102.328 287.086 102.328C287.238 102.328 287.384 102.389 287.492 102.497C287.6 102.606 287.66 102.753 287.66 102.906V119.167C287.66 119.32 287.6 119.467 287.492 119.575C287.384 119.684 287.238 119.745 287.086 119.745Z" fill="#263238"/>
<path d="M257.848 127.534C257.746 127.534 257.646 127.508 257.558 127.457C257.469 127.406 257.395 127.333 257.343 127.245L249.303 113.157C249.256 113.091 249.223 113.017 249.206 112.938C249.189 112.859 249.189 112.777 249.206 112.698C249.222 112.619 249.255 112.544 249.302 112.478C249.349 112.413 249.41 112.358 249.479 112.317C249.548 112.277 249.626 112.251 249.706 112.243C249.785 112.234 249.866 112.242 249.943 112.267C250.019 112.291 250.09 112.332 250.15 112.386C250.21 112.439 250.258 112.505 250.291 112.579L258.331 126.667C258.37 126.732 258.395 126.804 258.406 126.879C258.416 126.954 258.412 127.031 258.393 127.104C258.373 127.177 258.34 127.246 258.293 127.306C258.247 127.366 258.19 127.416 258.124 127.453C258.041 127.505 257.946 127.533 257.848 127.534Z" fill="#263238"/>
<path d="M249.439 243.477C249.338 243.478 249.238 243.45 249.152 243.396C249.087 243.354 249.032 243.3 248.99 243.236C248.947 243.172 248.918 243.1 248.904 243.024C248.89 242.948 248.892 242.87 248.908 242.795C248.925 242.72 248.957 242.649 249.002 242.587L257.042 228.511C257.08 228.445 257.13 228.387 257.19 228.34C257.25 228.294 257.318 228.26 257.392 228.24C257.465 228.22 257.541 228.215 257.616 228.224C257.691 228.234 257.763 228.259 257.829 228.297C257.895 228.335 257.952 228.385 257.998 228.446C258.044 228.506 258.078 228.575 258.098 228.648C258.118 228.722 258.123 228.798 258.113 228.874C258.104 228.949 258.079 229.022 258.041 229.088L250.002 243.165C249.949 243.268 249.868 243.352 249.768 243.408C249.667 243.463 249.553 243.487 249.439 243.477Z" fill="#263238"/>
<path d="M286.719 253.623C286.566 253.623 286.42 253.562 286.313 253.454C286.205 253.345 286.145 253.198 286.145 253.045V236.807C286.145 236.654 286.205 236.507 286.313 236.399C286.42 236.29 286.566 236.229 286.719 236.229C286.87 236.232 287.015 236.294 287.122 236.402C287.229 236.51 287.29 236.655 287.293 236.807V253.068C287.287 253.217 287.224 253.358 287.117 253.462C287.01 253.565 286.867 253.623 286.719 253.623Z" fill="#263238"/>
<path d="M324.05 243.662C323.949 243.661 323.851 243.634 323.765 243.584C323.678 243.533 323.606 243.46 323.556 243.373L315.516 229.296C315.478 229.23 315.454 229.158 315.444 229.082C315.435 229.007 315.44 228.93 315.459 228.856C315.479 228.783 315.513 228.714 315.559 228.654C315.605 228.593 315.663 228.543 315.729 228.505C315.794 228.467 315.867 228.442 315.942 228.432C316.017 228.423 316.093 228.428 316.166 228.448C316.239 228.468 316.307 228.502 316.367 228.548C316.427 228.595 316.478 228.653 316.515 228.719L324.555 242.795C324.594 242.86 324.619 242.932 324.63 243.007C324.641 243.082 324.636 243.159 324.617 243.232C324.598 243.305 324.564 243.374 324.518 243.434C324.472 243.494 324.414 243.544 324.348 243.581C324.259 243.637 324.155 243.665 324.05 243.662Z" fill="#263238"/>
<path d="M316.283 127.716C316.182 127.717 316.083 127.689 315.996 127.635C315.931 127.598 315.873 127.548 315.827 127.488C315.781 127.428 315.747 127.36 315.728 127.286C315.708 127.213 315.704 127.137 315.715 127.062C315.725 126.987 315.751 126.914 315.79 126.849L323.829 112.761C323.913 112.646 324.036 112.565 324.175 112.536C324.314 112.506 324.46 112.53 324.582 112.602C324.705 112.674 324.797 112.789 324.841 112.925C324.884 113.061 324.876 113.209 324.817 113.339L316.777 127.427C316.726 127.513 316.653 127.585 316.567 127.635C316.481 127.686 316.383 127.713 316.283 127.716Z" fill="#263238"/>
</svg>
