<svg width="116" height="25" viewBox="0 0 116 25" fill="none" xmlns="http://www.w3.org/2000/svg">
<circle cx="12.2388" cy="12.9459" r="11.1724" fill="#38A993"/>
<path d="M16.706 16.1395L15.4246 12.8287L15.1355 12.0951C15.0971 11.9762 15.1334 11.8037 15.2231 11.7157L16.7486 10.2195C17.2272 9.75015 17.4483 8.83881 17.2472 8.19494C17.1753 7.97205 16.9993 7.79258 16.7778 7.71636C16.1428 7.50776 15.2224 7.71609 14.7438 8.18547L13.2183 9.68164C13.1286 9.76965 12.9555 9.80253 12.8374 9.76189L8.829 8.11822C8.39135 7.93128 7.74816 8.0633 7.40916 8.39578L6.75111 9.04119C6.32737 9.45679 6.43092 9.9812 6.98668 10.2088L10.5131 11.6503C10.7885 11.7616 10.8403 12.0238 10.6259 12.234L10.0726 12.7767L9.17524 13.6568C9.06058 13.7693 8.8325 13.8658 8.67451 13.8643L6.3786 13.847C6.14161 13.8447 5.85352 14.0196 5.73781 14.2407L5.27985 15.13C5.07373 15.5082 5.26173 15.9791 5.67024 16.1164L7.83097 16.325C8.16153 16.3529 8.45 16.647 8.47148 16.9781L8.63812 19.1425C8.77244 19.5487 9.23464 19.7507 9.62655 19.5619L10.5246 19.1213C10.7429 19.0147 10.9284 18.7252 10.9307 18.4882L10.9579 16.1924C10.9545 16.0294 11.0555 15.8033 11.1701 15.6908L12.6208 14.268C12.8352 14.0577 13.0865 14.1145 13.2023 14.3921L14.5751 17.9458C14.7918 18.5059 15.3141 18.6196 15.7379 18.204L16.3959 17.5586C16.7349 17.2261 16.8794 16.5856 16.706 16.1395Z" fill="white"/>
<path d="M33.9374 18.4747C33.2422 18.4747 32.5967 18.3456 32.0008 18.0873C31.405 17.8192 30.8985 17.4567 30.4814 16.9999C30.0643 16.5431 29.7564 16.0167 29.5578 15.4209L31.0474 14.7952C31.3156 15.4804 31.7079 16.0068 32.2243 16.3742C32.7407 16.7417 33.3366 16.9254 34.0119 16.9254C34.4091 16.9254 34.7567 16.8658 35.0546 16.7467C35.3526 16.6176 35.581 16.4388 35.7399 16.2104C35.9087 15.982 35.9931 15.7188 35.9931 15.4209C35.9931 15.0137 35.8789 14.6909 35.6505 14.4526C35.4221 14.2142 35.0844 14.0256 34.6375 13.8865L32.552 13.2311C31.7178 12.9729 31.0822 12.5806 30.6452 12.0542C30.2083 11.518 29.9898 10.8923 29.9898 10.1773C29.9898 9.55162 30.1437 9.00541 30.4516 8.53866C30.7594 8.06197 31.1815 7.68955 31.7178 7.42142C32.264 7.15328 32.8847 7.01921 33.5799 7.01921C34.2452 7.01921 34.851 7.13838 35.3972 7.37673C35.9434 7.60514 36.4102 7.92293 36.7975 8.3301C37.1948 8.73728 37.4828 9.209 37.6615 9.74528L36.2017 10.3858C35.9832 9.7999 35.6406 9.34804 35.1738 9.03024C34.717 8.71245 34.1857 8.55355 33.5799 8.55355C33.2124 8.55355 32.8897 8.6181 32.6116 8.74721C32.3335 8.86638 32.115 9.04514 31.9561 9.28348C31.8072 9.5119 31.7327 9.78004 31.7327 10.0879C31.7327 10.4454 31.8469 10.7632 32.0753 11.0413C32.3037 11.3193 32.6513 11.5279 33.1181 11.6669L35.0546 12.2777C35.9385 12.5458 36.6039 12.9331 37.0508 13.4396C37.4977 13.9362 37.7211 14.5569 37.7211 15.3017C37.7211 15.9174 37.5572 16.4636 37.2295 16.9403C36.9117 17.417 36.4698 17.7944 35.9037 18.0725C35.3377 18.3406 34.6822 18.4747 33.9374 18.4747ZM39.5305 18.2959V7.01921H41.2138V14.5718L40.5583 14.4079L44.5953 10.2369H46.6957L43.6568 13.4694L46.8298 18.2959H44.8932L42.0629 14.0206L43.0609 13.8865L40.6775 16.4189L41.2138 15.3017V18.2959H39.5305ZM48.6975 21.588C48.4989 21.588 48.3003 21.5682 48.1017 21.5285C47.913 21.4987 47.7392 21.449 47.5803 21.3795V19.9345C47.6995 19.9643 47.8435 19.9891 48.0123 20.009C48.1811 20.0388 48.345 20.0537 48.5039 20.0537C48.9706 20.0537 49.3133 19.9494 49.5317 19.7409C49.7602 19.5422 49.9637 19.2294 50.1425 18.8024L50.6788 17.5809L50.649 18.996L47.1632 10.2369H48.9657L51.5428 16.9552H50.932L53.4942 10.2369H55.3116L51.7513 19.1748C51.5626 19.6515 51.3243 20.0686 51.0363 20.4261C50.7582 20.7936 50.4255 21.0766 50.0382 21.2752C49.6608 21.4838 49.2139 21.588 48.6975 21.588ZM56.6275 18.2959V7.19797H63.9417V8.7621H58.3853V11.95H63.6438V13.5141H58.3853V16.7318H63.9417V18.2959H56.6275ZM64.6059 18.2959L67.4213 14.2589L64.6059 10.2369H66.5871L68.8961 13.6035H67.9427L70.2517 10.2369H72.2329L69.4026 14.2589L72.218 18.2959H70.2368L67.9576 14.9144H68.8812L66.5871 18.2959H64.6059ZM73.3823 21.2752V10.2369H74.9911V11.9053L74.7975 11.518C75.0954 11.0611 75.4926 10.7036 75.9892 10.4454C76.4857 10.1872 77.0518 10.0581 77.6874 10.0581C78.4521 10.0581 79.1373 10.2418 79.7431 10.6093C80.3588 10.9767 80.8405 11.4782 81.1881 12.1138C81.5456 12.7494 81.7244 13.4644 81.7244 14.2589C81.7244 15.0534 81.5456 15.7684 81.1881 16.404C80.8405 17.0396 80.3638 17.5461 79.758 17.9235C79.1522 18.2909 78.462 18.4747 77.6874 18.4747C77.0617 18.4747 76.4907 18.3456 75.9743 18.0873C75.4678 17.8291 75.0755 17.4567 74.7975 16.9701L75.0656 16.6573V21.2752H73.3823ZM77.5235 16.9105C78.0002 16.9105 78.4223 16.7963 78.7897 16.5679C79.1572 16.3395 79.4452 16.0267 79.6537 15.6294C79.8722 15.2222 79.9815 14.7654 79.9815 14.2589C79.9815 13.7524 79.8722 13.3006 79.6537 12.9033C79.4452 12.5061 79.1572 12.1933 78.7897 11.9649C78.4223 11.7364 78.0002 11.6222 77.5235 11.6222C77.0568 11.6222 76.6347 11.7364 76.2573 11.9649C75.8899 12.1933 75.5969 12.5061 75.3784 12.9033C75.1699 13.3006 75.0656 13.7524 75.0656 14.2589C75.0656 14.7654 75.1699 15.2222 75.3784 15.6294C75.5969 16.0267 75.8899 16.3395 76.2573 16.5679C76.6347 16.7963 77.0568 16.9105 77.5235 16.9105ZM83.3618 18.2959V7.01921H85.0451V18.2959H83.3618ZM90.9012 18.4747C90.1266 18.4747 89.4165 18.2909 88.771 17.9235C88.1354 17.556 87.6289 17.0545 87.2516 16.4189C86.8742 15.7833 86.6855 15.0633 86.6855 14.2589C86.6855 13.4446 86.8742 12.7246 87.2516 12.0989C87.6289 11.4633 88.1354 10.9668 88.771 10.6093C89.4066 10.2418 90.1167 10.0581 90.9012 10.0581C91.6957 10.0581 92.4058 10.2418 93.0314 10.6093C93.667 10.9668 94.1685 11.4633 94.536 12.0989C94.9134 12.7246 95.102 13.4446 95.102 14.2589C95.102 15.0733 94.9134 15.7982 94.536 16.4338C94.1586 17.0694 93.6521 17.5709 93.0165 17.9384C92.3809 18.2959 91.6758 18.4747 90.9012 18.4747ZM90.9012 16.9105C91.3779 16.9105 91.8 16.7963 92.1674 16.5679C92.5349 16.3395 92.8229 16.0267 93.0314 15.6294C93.2499 15.2222 93.3591 14.7654 93.3591 14.2589C93.3591 13.7524 93.2499 13.3006 93.0314 12.9033C92.8229 12.5061 92.5349 12.1933 92.1674 11.9649C91.8 11.7364 91.3779 11.6222 90.9012 11.6222C90.4345 11.6222 90.0124 11.7364 89.635 11.9649C89.2676 12.1933 88.9746 12.5061 88.7561 12.9033C88.5476 13.3006 88.4433 13.7524 88.4433 14.2589C88.4433 14.7654 88.5476 15.2222 88.7561 15.6294C88.9746 16.0267 89.2676 16.3395 89.635 16.5679C90.0124 16.7963 90.4345 16.9105 90.9012 16.9105ZM96.7454 18.2959V10.2369H98.3543V11.8606L98.2053 11.6222C98.3841 11.0959 98.6721 10.7185 99.0693 10.4901C99.4665 10.2518 99.9432 10.1326 100.499 10.1326H100.991V11.6669H100.291C99.7347 11.6669 99.2828 11.8407 98.9352 12.1883C98.5976 12.526 98.4287 13.0126 98.4287 13.6482V18.2959H96.7454ZM105.926 18.4747C105.122 18.4747 104.407 18.2909 103.781 17.9235C103.165 17.5461 102.684 17.0396 102.336 16.404C101.989 15.7585 101.815 15.0385 101.815 14.244C101.815 13.4297 101.989 12.7097 102.336 12.084C102.694 11.4584 103.17 10.9668 103.766 10.6093C104.362 10.2418 105.037 10.0581 105.792 10.0581C106.398 10.0581 106.939 10.1624 107.416 10.3709C107.893 10.5795 108.295 10.8675 108.623 11.2349C108.95 11.5924 109.199 12.0046 109.367 12.4713C109.546 12.9381 109.635 13.4347 109.635 13.961C109.635 14.0901 109.631 14.2242 109.621 14.3632C109.611 14.5022 109.591 14.6313 109.561 14.7505H103.141V13.4098H108.608L107.803 14.0206C107.903 13.534 107.868 13.102 107.699 12.7246C107.54 12.3373 107.292 12.0344 106.954 11.8159C106.626 11.5875 106.239 11.4733 105.792 11.4733C105.345 11.4733 104.948 11.5875 104.6 11.8159C104.253 12.0344 103.985 12.3522 103.796 12.7693C103.607 13.1764 103.533 13.673 103.573 14.2589C103.523 14.8051 103.597 15.2818 103.796 15.689C104.005 16.0962 104.293 16.414 104.66 16.6424C105.037 16.8708 105.464 16.985 105.941 16.985C106.428 16.985 106.84 16.8758 107.178 16.6573C107.525 16.4388 107.798 16.1558 107.997 15.8082L109.367 16.4785C109.208 16.8559 108.96 17.1985 108.623 17.5064C108.295 17.8043 107.898 18.0427 107.431 18.2214C106.974 18.3902 106.472 18.4747 105.926 18.4747ZM111.278 18.2959V10.2369H112.887V11.8606L112.738 11.6222C112.917 11.0959 113.205 10.7185 113.602 10.4901C113.999 10.2518 114.476 10.1326 115.032 10.1326H115.524V11.6669H114.824C114.268 11.6669 113.816 11.8407 113.468 12.1883C113.13 12.526 112.962 13.0126 112.962 13.6482V18.2959H111.278Z" fill="#111111"/>
</svg>
