<svg width="24" height="24" viewBox="0 0 24 24" fill="none" xmlns="http://www.w3.org/2000/svg">
<circle cx="12.2388" cy="12.1502" r="11.1724" fill="#38A993"/>
<path d="M16.706 15.343L15.4246 12.0322L15.1355 11.2986C15.0971 11.1797 15.1334 11.0072 15.2231 10.9192L16.7486 9.42303C17.2272 8.95364 17.4483 8.0423 17.2472 7.39843C17.1753 7.17554 16.9993 6.99607 16.7778 6.91985C16.1428 6.71125 15.2224 6.91958 14.7438 7.38897L13.2183 8.88513C13.1286 8.97314 12.9555 9.00603 12.8374 8.96538L8.829 7.32172C8.39135 7.13477 7.74816 7.26679 7.40916 7.59927L6.75111 8.24468C6.32737 8.66028 6.43092 9.18469 6.98668 9.41228L10.5131 10.8538C10.7885 10.9651 10.8403 11.2273 10.6259 11.4375L10.0726 11.9802L9.17524 12.8603C9.06058 12.9728 8.8325 13.0693 8.67451 13.0678L6.3786 13.0505C6.14161 13.0482 5.85352 13.2231 5.73781 13.4442L5.27985 14.3335C5.07373 14.7117 5.26173 15.1826 5.67024 15.3199L7.83097 15.5285C8.16153 15.5564 8.45 15.8505 8.47148 16.1816L8.63812 18.3459C8.77244 18.7521 9.23464 18.9541 9.62655 18.7654L10.5246 18.3247C10.7429 18.2182 10.9284 17.9287 10.9307 17.6917L10.9579 15.3959C10.9545 15.2329 11.0555 15.0068 11.1701 14.8943L12.6208 13.4715C12.8352 13.2612 13.0865 13.318 13.2023 13.5956L14.5751 17.1493C14.7918 17.7094 15.3141 17.8231 15.7379 17.4075L16.3959 16.7621C16.7349 16.4296 16.8794 15.7891 16.706 15.343Z" fill="white"/>
</svg>
